4OFF
8 32 0
1.000000 0.000000 0.000000 0.000000
-1.000000 0.000000 0.000000 0.000000
0.000000 1.000000 0.000000 0.000000
0.000000 -1.000000 0.000000 0.000000
0.000000 0.000000 1.000000 0.000000
0.000000 0.000000 -1.000000 0.000000
0.000000 0.000000 0.000000 1.000000
0.000000 0.000000 0.000000 -1.000000
3 0 2 4
3 0 2 5
3 0 3 4
3 0 3 5
3 1 2 4
3 1 2 5
3 1 3 4
3 1 3 5
3 0 2 6
3 0 2 7
3 0 3 6
3 0 3 7
3 1 2 6
3 1 2 7
3 1 3 6
3 1 3 7
3 0 4 6
3 0 4 7
3 0 5 6
3 0 5 7
3 1 4 6
3 1 4 7
3 1 5 6
3 1 5 7
3 2 4 6
3 2 4 7
3 2 5 6
3 2 5 7
3 3 4 6
3 3 4 7
3 3 5 6
3 3 5 7