4OFF
24 96 96 24
# Vertices: 24 vertices of the 24-cell
# These are the permutations of (±1, 0, 0, 0) and (±0.5, ±0.5, ±0.5, ±0.5)
1 0 0 0
-1 0 0 0
0 1 0 0
0 -1 0 0
0 0 1 0
0 0 -1 0
0 0 0 1
0 0 0 -1
0.5 0.5 0.5 0.5
0.5 0.5 0.5 -0.5
0.5 0.5 -0.5 0.5
0.5 0.5 -0.5 -0.5
0.5 -0.5 0.5 0.5
0.5 -0.5 0.5 -0.5
0.5 -0.5 -0.5 0.5
0.5 -0.5 -0.5 -0.5
-0.5 0.5 0.5 0.5
-0.5 0.5 0.5 -0.5
-0.5 0.5 -0.5 0.5
-0.5 0.5 -0.5 -0.5
-0.5 -0.5 0.5 0.5
-0.5 -0.5 0.5 -0.5
-0.5 -0.5 -0.5 0.5
-0.5 -0.5 -0.5 -0.5
# Edges (96 edges connecting vertices at distance 1)
2 0 8
2 0 9
2 0 10
2 0 11
2 0 12
2 0 13
2 0 14
2 0 15
2 1 16
2 1 17
2 1 18
2 1 19
2 1 20
2 1 21
2 1 22
2 1 23
2 2 8
2 2 9
2 2 10
2 2 11
2 2 16
2 2 17
2 2 18
2 2 19
2 3 12
2 3 13
2 3 14
2 3 15
2 3 20
2 3 21
2 3 22
2 3 23
2 4 8
2 4 9
2 4 12
2 4 13
2 4 16
2 4 17
2 4 20
2 4 21
2 5 10
2 5 11
2 5 14
2 5 15
2 5 18
2 5 19
2 5 22
2 5 23
2 6 8
2 6 10
2 6 12
2 6 14
2 6 16
2 6 18
2 6 20
2 6 22
2 7 9
2 7 11
2 7 13
2 7 15
2 7 17
2 7 19
2 7 21
2 7 23
2 8 9
2 8 10
2 8 12
2 8 16
2 9 11
2 9 13
2 9 17
2 10 11
2 10 14
2 10 18
2 11 15
2 11 19
2 12 13
2 12 14
2 12 20
2 13 15
2 13 21
2 14 15
2 14 22
2 15 23
2 16 17
2 16 18
2 16 20
2 17 19
2 17 21
2 18 19
2 18 22
2 19 23
2 20 21
2 20 22
2 21 23
2 22 23
# Faces (96 triangular faces)
3 0 8 9
3 0 8 10
3 0 8 12
3 0 9 11
3 0 9 13
3 0 10 11
3 0 10 14
3 0 11 15
3 0 12 13
3 0 12 14
3 0 13 15
3 0 14 15
3 1 16 17
3 1 16 18
3 1 16 20
3 1 17 19
3 1 17 21
3 1 18 19
3 1 18 22
3 1 19 23
3 1 20 21
3 1 20 22
3 1 21 23
3 1 22 23
3 2 8 9
3 2 8 10
3 2 8 16
3 2 9 11
3 2 9 17
3 2 10 11
3 2 10 18
3 2 11 19
3 2 16 17
3 2 16 18
3 2 17 19
3 2 18 19
3 3 12 13
3 3 12 14
3 3 12 20
3 3 13 15
3 3 13 21
3 3 14 15
3 3 14 22
3 3 15 23
3 3 20 21
3 3 20 22
3 3 21 23
3 3 22 23
3 4 8 9
3 4 8 12
3 4 8 16
3 4 9 13
3 4 9 17
3 4 12 13
3 4 12 20
3 4 13 21
3 4 16 17
3 4 16 20
3 4 17 21
3 4 20 21
3 5 10 11
3 5 10 14
3 5 10 18
3 5 11 15
3 5 11 19
3 5 14 15
3 5 14 22
3 5 15 23
3 5 18 19
3 5 18 22
3 5 19 23
3 5 22 23
3 6 8 10
3 6 8 12
3 6 8 16
3 6 10 14
3 6 10 18
3 6 12 14
3 6 12 20
3 6 14 22
3 6 16 18
3 6 16 20
3 6 18 22
3 6 20 22
3 7 9 11
3 7 9 13
3 7 9 17
3 7 11 15
3 7 11 19
3 7 13 15
3 7 13 21
3 7 15 23
3 7 17 19
3 7 17 21
3 7 19 23
3 7 21 23
# Cells (24 octahedral cells)
8 0 8 9 10 11 12 13 14 15
8 1 16 17 18 19 20 21 22 23
8 2 8 9 10 11 16 17 18 19
8 3 12 13 14 15 20 21 22 23
8 4 8 9 12 13 16 17 20 21
8 5 10 11 14 15 18 19 22 23
8 6 8 10 12 14 16 18 20 22
8 7 9 11 13 15 17 19 21 23
8 0 2 8 9 10 11 4 6
8 0 2 8 9 10 11 5 7
8 0 3 12 13 14 15 4 6
8 0 3 12 13 14 15 5 7
8 1 2 16 17 18 19 4 6
8 1 2 16 17 18 19 5 7
8 1 3 20 21 22 23 4 6
8 1 3 20 21 22 23 5 7
8 0 4 8 9 12 13 2 3
8 0 4 8 9 12 13 6 7
8 0 5 10 11 14 15 2 3
8 0 5 10 11 14 15 6 7
8 1 4 16 17 20 21 2 3
8 1 4 16 17 20 21 6 7
8 1 5 18 19 22 23 2 3
8 1 5 18 19 22 23 6 7
