4OFF
1024 2048 0
1.000000 0.000000 1.000000 0.000000
1.000000 0.000000 0.980785 0.195090
1.000000 0.000000 0.923880 0.382683
1.000000 0.000000 0.831470 0.555570
1.000000 0.000000 0.707107 0.707107
1.000000 0.000000 0.555570 0.831470
1.000000 0.000000 0.382683 0.923880
1.000000 0.000000 0.195090 0.980785
1.000000 0.000000 0.000000 1.000000
1.000000 0.000000 -0.195090 0.980785
1.000000 0.000000 -0.382683 0.923880
1.000000 0.000000 -0.555570 0.831470
1.000000 0.000000 -0.707107 0.707107
1.000000 0.000000 -0.831470 0.555570
1.000000 0.000000 -0.923880 0.382683
1.000000 0.000000 -0.980785 0.195090
1.000000 0.000000 -1.000000 0.000000
1.000000 0.000000 -0.980785 -0.195090
1.000000 0.000000 -0.923880 -0.382683
1.000000 0.000000 -0.831470 -0.555570
1.000000 0.000000 -0.707107 -0.707107
1.000000 0.000000 -0.555570 -0.831470
1.000000 0.000000 -0.382683 -0.923880
1.000000 0.000000 -0.195090 -0.980785
1.000000 0.000000 -0.000000 -1.000000
1.000000 0.000000 0.195090 -0.980785
1.000000 0.000000 0.382683 -0.923880
1.000000 0.000000 0.555570 -0.831470
1.000000 0.000000 0.707107 -0.707107
1.000000 0.000000 0.831470 -0.555570
1.000000 0.000000 0.923880 -0.382683
1.000000 0.000000 0.980785 -0.195090
0.980785 0.195090 1.000000 0.000000
0.980785 0.195090 0.980785 0.195090
0.980785 0.195090 0.923880 0.382683
0.980785 0.195090 0.831470 0.555570
0.980785 0.195090 0.707107 0.707107
0.980785 0.195090 0.555570 0.831470
0.980785 0.195090 0.382683 0.923880
0.980785 0.195090 0.195090 0.980785
0.980785 0.195090 0.000000 1.000000
0.980785 0.195090 -0.195090 0.980785
0.980785 0.195090 -0.382683 0.923880
0.980785 0.195090 -0.555570 0.831470
0.980785 0.195090 -0.707107 0.707107
0.980785 0.195090 -0.831470 0.555570
0.980785 0.195090 -0.923880 0.382683
0.980785 0.195090 -0.980785 0.195090
0.980785 0.195090 -1.000000 0.000000
0.980785 0.195090 -0.980785 -0.195090
0.980785 0.195090 -0.923880 -0.382683
0.980785 0.195090 -0.831470 -0.555570
0.980785 0.195090 -0.707107 -0.707107
0.980785 0.195090 -0.555570 -0.831470
0.980785 0.195090 -0.382683 -0.923880
0.980785 0.195090 -0.195090 -0.980785
0.980785 0.195090 -0.000000 -1.000000
0.980785 0.195090 0.195090 -0.980785
0.980785 0.195090 0.382683 -0.923880
0.980785 0.195090 0.555570 -0.831470
0.980785 0.195090 0.707107 -0.707107
0.980785 0.195090 0.831470 -0.555570
0.980785 0.195090 0.923880 -0.382683
0.980785 0.195090 0.980785 -0.195090
0.923880 0.382683 1.000000 0.000000
0.923880 0.382683 0.980785 0.195090
0.923880 0.382683 0.923880 0.382683
0.923880 0.382683 0.831470 0.555570
0.923880 0.382683 0.707107 0.707107
0.923880 0.382683 0.555570 0.831470
0.923880 0.382683 0.382683 0.923880
0.923880 0.382683 0.195090 0.980785
0.923880 0.382683 0.000000 1.000000
0.923880 0.382683 -0.195090 0.980785
0.923880 0.382683 -0.382683 0.923880
0.923880 0.382683 -0.555570 0.831470
0.923880 0.382683 -0.707107 0.707107
0.923880 0.382683 -0.831470 0.555570
0.923880 0.382683 -0.923880 0.382683
0.923880 0.382683 -0.980785 0.195090
0.923880 0.382683 -1.000000 0.000000
0.923880 0.382683 -0.980785 -0.195090
0.923880 0.382683 -0.923880 -0.382683
0.923880 0.382683 -0.831470 -0.555570
0.923880 0.382683 -0.707107 -0.707107
0.923880 0.382683 -0.555570 -0.831470
0.923880 0.382683 -0.382683 -0.923880
0.923880 0.382683 -0.195090 -0.980785
0.923880 0.382683 -0.000000 -1.000000
0.923880 0.382683 0.195090 -0.980785
0.923880 0.382683 0.382683 -0.923880
0.923880 0.382683 0.555570 -0.831470
0.923880 0.382683 0.707107 -0.707107
0.923880 0.382683 0.831470 -0.555570
0.923880 0.382683 0.923880 -0.382683
0.923880 0.382683 0.980785 -0.195090
0.831470 0.555570 1.000000 0.000000
0.831470 0.555570 0.980785 0.195090
0.831470 0.555570 0.923880 0.382683
0.831470 0.555570 0.831470 0.555570
0.831470 0.555570 0.707107 0.707107
0.831470 0.555570 0.555570 0.831470
0.831470 0.555570 0.382683 0.923880
0.831470 0.555570 0.195090 0.980785
0.831470 0.555570 0.000000 1.000000
0.831470 0.555570 -0.195090 0.980785
0.831470 0.555570 -0.382683 0.923880
0.831470 0.555570 -0.555570 0.831470
0.831470 0.555570 -0.707107 0.707107
0.831470 0.555570 -0.831470 0.555570
0.831470 0.555570 -0.923880 0.382683
0.831470 0.555570 -0.980785 0.195090
0.831470 0.555570 -1.000000 0.000000
0.831470 0.555570 -0.980785 -0.195090
0.831470 0.555570 -0.923880 -0.382683
0.831470 0.555570 -0.831470 -0.555570
0.831470 0.555570 -0.707107 -0.707107
0.831470 0.555570 -0.555570 -0.831470
0.831470 0.555570 -0.382683 -0.923880
0.831470 0.555570 -0.195090 -0.980785
0.831470 0.555570 -0.000000 -1.000000
0.831470 0.555570 0.195090 -0.980785
0.831470 0.555570 0.382683 -0.923880
0.831470 0.555570 0.555570 -0.831470
0.831470 0.555570 0.707107 -0.707107
0.831470 0.555570 0.831470 -0.555570
0.831470 0.555570 0.923880 -0.382683
0.831470 0.555570 0.980785 -0.195090
0.707107 0.707107 1.000000 0.000000
0.707107 0.707107 0.980785 0.195090
0.707107 0.707107 0.923880 0.382683
0.707107 0.707107 0.831470 0.555570
0.707107 0.707107 0.707107 0.707107
0.707107 0.707107 0.555570 0.831470
0.707107 0.707107 0.382683 0.923880
0.707107 0.707107 0.195090 0.980785
0.707107 0.707107 0.000000 1.000000
0.707107 0.707107 -0.195090 0.980785
0.707107 0.707107 -0.382683 0.923880
0.707107 0.707107 -0.555570 0.831470
0.707107 0.707107 -0.707107 0.707107
0.707107 0.707107 -0.831470 0.555570
0.707107 0.707107 -0.923880 0.382683
0.707107 0.707107 -0.980785 0.195090
0.707107 0.707107 -1.000000 0.000000
0.707107 0.707107 -0.980785 -0.195090
0.707107 0.707107 -0.923880 -0.382683
0.707107 0.707107 -0.831470 -0.555570
0.707107 0.707107 -0.707107 -0.707107
0.707107 0.707107 -0.555570 -0.831470
0.707107 0.707107 -0.382683 -0.923880
0.707107 0.707107 -0.195090 -0.980785
0.707107 0.707107 -0.000000 -1.000000
0.707107 0.707107 0.195090 -0.980785
0.707107 0.707107 0.382683 -0.923880
0.707107 0.707107 0.555570 -0.831470
0.707107 0.707107 0.707107 -0.707107
0.707107 0.707107 0.831470 -0.555570
0.707107 0.707107 0.923880 -0.382683
0.707107 0.707107 0.980785 -0.195090
0.555570 0.831470 1.000000 0.000000
0.555570 0.831470 0.980785 0.195090
0.555570 0.831470 0.923880 0.382683
0.555570 0.831470 0.831470 0.555570
0.555570 0.831470 0.707107 0.707107
0.555570 0.831470 0.555570 0.831470
0.555570 0.831470 0.382683 0.923880
0.555570 0.831470 0.195090 0.980785
0.555570 0.831470 0.000000 1.000000
0.555570 0.831470 -0.195090 0.980785
0.555570 0.831470 -0.382683 0.923880
0.555570 0.831470 -0.555570 0.831470
0.555570 0.831470 -0.707107 0.707107
0.555570 0.831470 -0.831470 0.555570
0.555570 0.831470 -0.923880 0.382683
0.555570 0.831470 -0.980785 0.195090
0.555570 0.831470 -1.000000 0.000000
0.555570 0.831470 -0.980785 -0.195090
0.555570 0.831470 -0.923880 -0.382683
0.555570 0.831470 -0.831470 -0.555570
0.555570 0.831470 -0.707107 -0.707107
0.555570 0.831470 -0.555570 -0.831470
0.555570 0.831470 -0.382683 -0.923880
0.555570 0.831470 -0.195090 -0.980785
0.555570 0.831470 -0.000000 -1.000000
0.555570 0.831470 0.195090 -0.980785
0.555570 0.831470 0.382683 -0.923880
0.555570 0.831470 0.555570 -0.831470
0.555570 0.831470 0.707107 -0.707107
0.555570 0.831470 0.831470 -0.555570
0.555570 0.831470 0.923880 -0.382683
0.555570 0.831470 0.980785 -0.195090
0.382683 0.923880 1.000000 0.000000
0.382683 0.923880 0.980785 0.195090
0.382683 0.923880 0.923880 0.382683
0.382683 0.923880 0.831470 0.555570
0.382683 0.923880 0.707107 0.707107
0.382683 0.923880 0.555570 0.831470
0.382683 0.923880 0.382683 0.923880
0.382683 0.923880 0.195090 0.980785
0.382683 0.923880 0.000000 1.000000
0.382683 0.923880 -0.195090 0.980785
0.382683 0.923880 -0.382683 0.923880
0.382683 0.923880 -0.555570 0.831470
0.382683 0.923880 -0.707107 0.707107
0.382683 0.923880 -0.831470 0.555570
0.382683 0.923880 -0.923880 0.382683
0.382683 0.923880 -0.980785 0.195090
0.382683 0.923880 -1.000000 0.000000
0.382683 0.923880 -0.980785 -0.195090
0.382683 0.923880 -0.923880 -0.382683
0.382683 0.923880 -0.831470 -0.555570
0.382683 0.923880 -0.707107 -0.707107
0.382683 0.923880 -0.555570 -0.831470
0.382683 0.923880 -0.382683 -0.923880
0.382683 0.923880 -0.195090 -0.980785
0.382683 0.923880 -0.000000 -1.000000
0.382683 0.923880 0.195090 -0.980785
0.382683 0.923880 0.382683 -0.923880
0.382683 0.923880 0.555570 -0.831470
0.382683 0.923880 0.707107 -0.707107
0.382683 0.923880 0.831470 -0.555570
0.382683 0.923880 0.923880 -0.382683
0.382683 0.923880 0.980785 -0.195090
0.195090 0.980785 1.000000 0.000000
0.195090 0.980785 0.980785 0.195090
0.195090 0.980785 0.923880 0.382683
0.195090 0.980785 0.831470 0.555570
0.195090 0.980785 0.707107 0.707107
0.195090 0.980785 0.555570 0.831470
0.195090 0.980785 0.382683 0.923880
0.195090 0.980785 0.195090 0.980785
0.195090 0.980785 0.000000 1.000000
0.195090 0.980785 -0.195090 0.980785
0.195090 0.980785 -0.382683 0.923880
0.195090 0.980785 -0.555570 0.831470
0.195090 0.980785 -0.707107 0.707107
0.195090 0.980785 -0.831470 0.555570
0.195090 0.980785 -0.923880 0.382683
0.195090 0.980785 -0.980785 0.195090
0.195090 0.980785 -1.000000 0.000000
0.195090 0.980785 -0.980785 -0.195090
0.195090 0.980785 -0.923880 -0.382683
0.195090 0.980785 -0.831470 -0.555570
0.195090 0.980785 -0.707107 -0.707107
0.195090 0.980785 -0.555570 -0.831470
0.195090 0.980785 -0.382683 -0.923880
0.195090 0.980785 -0.195090 -0.980785
0.195090 0.980785 -0.000000 -1.000000
0.195090 0.980785 0.195090 -0.980785
0.195090 0.980785 0.382683 -0.923880
0.195090 0.980785 0.555570 -0.831470
0.195090 0.980785 0.707107 -0.707107
0.195090 0.980785 0.831470 -0.555570
0.195090 0.980785 0.923880 -0.382683
0.195090 0.980785 0.980785 -0.195090
0.000000 1.000000 1.000000 0.000000
0.000000 1.000000 0.980785 0.195090
0.000000 1.000000 0.923880 0.382683
0.000000 1.000000 0.831470 0.555570
0.000000 1.000000 0.707107 0.707107
0.000000 1.000000 0.555570 0.831470
0.000000 1.000000 0.382683 0.923880
0.000000 1.000000 0.195090 0.980785
0.000000 1.000000 0.000000 1.000000
0.000000 1.000000 -0.195090 0.980785
0.000000 1.000000 -0.382683 0.923880
0.000000 1.000000 -0.555570 0.831470
0.000000 1.000000 -0.707107 0.707107
0.000000 1.000000 -0.831470 0.555570
0.000000 1.000000 -0.923880 0.382683
0.000000 1.000000 -0.980785 0.195090
0.000000 1.000000 -1.000000 0.000000
0.000000 1.000000 -0.980785 -0.195090
0.000000 1.000000 -0.923880 -0.382683
0.000000 1.000000 -0.831470 -0.555570
0.000000 1.000000 -0.707107 -0.707107
0.000000 1.000000 -0.555570 -0.831470
0.000000 1.000000 -0.382683 -0.923880
0.000000 1.000000 -0.195090 -0.980785
0.000000 1.000000 -0.000000 -1.000000
0.000000 1.000000 0.195090 -0.980785
0.000000 1.000000 0.382683 -0.923880
0.000000 1.000000 0.555570 -0.831470
0.000000 1.000000 0.707107 -0.707107
0.000000 1.000000 0.831470 -0.555570
0.000000 1.000000 0.923880 -0.382683
0.000000 1.000000 0.980785 -0.195090
-0.195090 0.980785 1.000000 0.000000
-0.195090 0.980785 0.980785 0.195090
-0.195090 0.980785 0.923880 0.382683
-0.195090 0.980785 0.831470 0.555570
-0.195090 0.980785 0.707107 0.707107
-0.195090 0.980785 0.555570 0.831470
-0.195090 0.980785 0.382683 0.923880
-0.195090 0.980785 0.195090 0.980785
-0.195090 0.980785 0.000000 1.000000
-0.195090 0.980785 -0.195090 0.980785
-0.195090 0.980785 -0.382683 0.923880
-0.195090 0.980785 -0.555570 0.831470
-0.195090 0.980785 -0.707107 0.707107
-0.195090 0.980785 -0.831470 0.555570
-0.195090 0.980785 -0.923880 0.382683
-0.195090 0.980785 -0.980785 0.195090
-0.195090 0.980785 -1.000000 0.000000
-0.195090 0.980785 -0.980785 -0.195090
-0.195090 0.980785 -0.923880 -0.382683
-0.195090 0.980785 -0.831470 -0.555570
-0.195090 0.980785 -0.707107 -0.707107
-0.195090 0.980785 -0.555570 -0.831470
-0.195090 0.980785 -0.382683 -0.923880
-0.195090 0.980785 -0.195090 -0.980785
-0.195090 0.980785 -0.000000 -1.000000
-0.195090 0.980785 0.195090 -0.980785
-0.195090 0.980785 0.382683 -0.923880
-0.195090 0.980785 0.555570 -0.831470
-0.195090 0.980785 0.707107 -0.707107
-0.195090 0.980785 0.831470 -0.555570
-0.195090 0.980785 0.923880 -0.382683
-0.195090 0.980785 0.980785 -0.195090
-0.382683 0.923880 1.000000 0.000000
-0.382683 0.923880 0.980785 0.195090
-0.382683 0.923880 0.923880 0.382683
-0.382683 0.923880 0.831470 0.555570
-0.382683 0.923880 0.707107 0.707107
-0.382683 0.923880 0.555570 0.831470
-0.382683 0.923880 0.382683 0.923880
-0.382683 0.923880 0.195090 0.980785
-0.382683 0.923880 0.000000 1.000000
-0.382683 0.923880 -0.195090 0.980785
-0.382683 0.923880 -0.382683 0.923880
-0.382683 0.923880 -0.555570 0.831470
-0.382683 0.923880 -0.707107 0.707107
-0.382683 0.923880 -0.831470 0.555570
-0.382683 0.923880 -0.923880 0.382683
-0.382683 0.923880 -0.980785 0.195090
-0.382683 0.923880 -1.000000 0.000000
-0.382683 0.923880 -0.980785 -0.195090
-0.382683 0.923880 -0.923880 -0.382683
-0.382683 0.923880 -0.831470 -0.555570
-0.382683 0.923880 -0.707107 -0.707107
-0.382683 0.923880 -0.555570 -0.831470
-0.382683 0.923880 -0.382683 -0.923880
-0.382683 0.923880 -0.195090 -0.980785
-0.382683 0.923880 -0.000000 -1.000000
-0.382683 0.923880 0.195090 -0.980785
-0.382683 0.923880 0.382683 -0.923880
-0.382683 0.923880 0.555570 -0.831470
-0.382683 0.923880 0.707107 -0.707107
-0.382683 0.923880 0.831470 -0.555570
-0.382683 0.923880 0.923880 -0.382683
-0.382683 0.923880 0.980785 -0.195090
-0.555570 0.831470 1.000000 0.000000
-0.555570 0.831470 0.980785 0.195090
-0.555570 0.831470 0.923880 0.382683
-0.555570 0.831470 0.831470 0.555570
-0.555570 0.831470 0.707107 0.707107
-0.555570 0.831470 0.555570 0.831470
-0.555570 0.831470 0.382683 0.923880
-0.555570 0.831470 0.195090 0.980785
-0.555570 0.831470 0.000000 1.000000
-0.555570 0.831470 -0.195090 0.980785
-0.555570 0.831470 -0.382683 0.923880
-0.555570 0.831470 -0.555570 0.831470
-0.555570 0.831470 -0.707107 0.707107
-0.555570 0.831470 -0.831470 0.555570
-0.555570 0.831470 -0.923880 0.382683
-0.555570 0.831470 -0.980785 0.195090
-0.555570 0.831470 -1.000000 0.000000
-0.555570 0.831470 -0.980785 -0.195090
-0.555570 0.831470 -0.923880 -0.382683
-0.555570 0.831470 -0.831470 -0.555570
-0.555570 0.831470 -0.707107 -0.707107
-0.555570 0.831470 -0.555570 -0.831470
-0.555570 0.831470 -0.382683 -0.923880
-0.555570 0.831470 -0.195090 -0.980785
-0.555570 0.831470 -0.000000 -1.000000
-0.555570 0.831470 0.195090 -0.980785
-0.555570 0.831470 0.382683 -0.923880
-0.555570 0.831470 0.555570 -0.831470
-0.555570 0.831470 0.707107 -0.707107
-0.555570 0.831470 0.831470 -0.555570
-0.555570 0.831470 0.923880 -0.382683
-0.555570 0.831470 0.980785 -0.195090
-0.707107 0.707107 1.000000 0.000000
-0.707107 0.707107 0.980785 0.195090
-0.707107 0.707107 0.923880 0.382683
-0.707107 0.707107 0.831470 0.555570
-0.707107 0.707107 0.707107 0.707107
-0.707107 0.707107 0.555570 0.831470
-0.707107 0.707107 0.382683 0.923880
-0.707107 0.707107 0.195090 0.980785
-0.707107 0.707107 0.000000 1.000000
-0.707107 0.707107 -0.195090 0.980785
-0.707107 0.707107 -0.382683 0.923880
-0.707107 0.707107 -0.555570 0.831470
-0.707107 0.707107 -0.707107 0.707107
-0.707107 0.707107 -0.831470 0.555570
-0.707107 0.707107 -0.923880 0.382683
-0.707107 0.707107 -0.980785 0.195090
-0.707107 0.707107 -1.000000 0.000000
-0.707107 0.707107 -0.980785 -0.195090
-0.707107 0.707107 -0.923880 -0.382683
-0.707107 0.707107 -0.831470 -0.555570
-0.707107 0.707107 -0.707107 -0.707107
-0.707107 0.707107 -0.555570 -0.831470
-0.707107 0.707107 -0.382683 -0.923880
-0.707107 0.707107 -0.195090 -0.980785
-0.707107 0.707107 -0.000000 -1.000000
-0.707107 0.707107 0.195090 -0.980785
-0.707107 0.707107 0.382683 -0.923880
-0.707107 0.707107 0.555570 -0.831470
-0.707107 0.707107 0.707107 -0.707107
-0.707107 0.707107 0.831470 -0.555570
-0.707107 0.707107 0.923880 -0.382683
-0.707107 0.707107 0.980785 -0.195090
-0.831470 0.555570 1.000000 0.000000
-0.831470 0.555570 0.980785 0.195090
-0.831470 0.555570 0.923880 0.382683
-0.831470 0.555570 0.831470 0.555570
-0.831470 0.555570 0.707107 0.707107
-0.831470 0.555570 0.555570 0.831470
-0.831470 0.555570 0.382683 0.923880
-0.831470 0.555570 0.195090 0.980785
-0.831470 0.555570 0.000000 1.000000
-0.831470 0.555570 -0.195090 0.980785
-0.831470 0.555570 -0.382683 0.923880
-0.831470 0.555570 -0.555570 0.831470
-0.831470 0.555570 -0.707107 0.707107
-0.831470 0.555570 -0.831470 0.555570
-0.831470 0.555570 -0.923880 0.382683
-0.831470 0.555570 -0.980785 0.195090
-0.831470 0.555570 -1.000000 0.000000
-0.831470 0.555570 -0.980785 -0.195090
-0.831470 0.555570 -0.923880 -0.382683
-0.831470 0.555570 -0.831470 -0.555570
-0.831470 0.555570 -0.707107 -0.707107
-0.831470 0.555570 -0.555570 -0.831470
-0.831470 0.555570 -0.382683 -0.923880
-0.831470 0.555570 -0.195090 -0.980785
-0.831470 0.555570 -0.000000 -1.000000
-0.831470 0.555570 0.195090 -0.980785
-0.831470 0.555570 0.382683 -0.923880
-0.831470 0.555570 0.555570 -0.831470
-0.831470 0.555570 0.707107 -0.707107
-0.831470 0.555570 0.831470 -0.555570
-0.831470 0.555570 0.923880 -0.382683
-0.831470 0.555570 0.980785 -0.195090
-0.923880 0.382683 1.000000 0.000000
-0.923880 0.382683 0.980785 0.195090
-0.923880 0.382683 0.923880 0.382683
-0.923880 0.382683 0.831470 0.555570
-0.923880 0.382683 0.707107 0.707107
-0.923880 0.382683 0.555570 0.831470
-0.923880 0.382683 0.382683 0.923880
-0.923880 0.382683 0.195090 0.980785
-0.923880 0.382683 0.000000 1.000000
-0.923880 0.382683 -0.195090 0.980785
-0.923880 0.382683 -0.382683 0.923880
-0.923880 0.382683 -0.555570 0.831470
-0.923880 0.382683 -0.707107 0.707107
-0.923880 0.382683 -0.831470 0.555570
-0.923880 0.382683 -0.923880 0.382683
-0.923880 0.382683 -0.980785 0.195090
-0.923880 0.382683 -1.000000 0.000000
-0.923880 0.382683 -0.980785 -0.195090
-0.923880 0.382683 -0.923880 -0.382683
-0.923880 0.382683 -0.831470 -0.555570
-0.923880 0.382683 -0.707107 -0.707107
-0.923880 0.382683 -0.555570 -0.831470
-0.923880 0.382683 -0.382683 -0.923880
-0.923880 0.382683 -0.195090 -0.980785
-0.923880 0.382683 -0.000000 -1.000000
-0.923880 0.382683 0.195090 -0.980785
-0.923880 0.382683 0.382683 -0.923880
-0.923880 0.382683 0.555570 -0.831470
-0.923880 0.382683 0.707107 -0.707107
-0.923880 0.382683 0.831470 -0.555570
-0.923880 0.382683 0.923880 -0.382683
-0.923880 0.382683 0.980785 -0.195090
-0.980785 0.195090 1.000000 0.000000
-0.980785 0.195090 0.980785 0.195090
-0.980785 0.195090 0.923880 0.382683
-0.980785 0.195090 0.831470 0.555570
-0.980785 0.195090 0.707107 0.707107
-0.980785 0.195090 0.555570 0.831470
-0.980785 0.195090 0.382683 0.923880
-0.980785 0.195090 0.195090 0.980785
-0.980785 0.195090 0.000000 1.000000
-0.980785 0.195090 -0.195090 0.980785
-0.980785 0.195090 -0.382683 0.923880
-0.980785 0.195090 -0.555570 0.831470
-0.980785 0.195090 -0.707107 0.707107
-0.980785 0.195090 -0.831470 0.555570
-0.980785 0.195090 -0.923880 0.382683
-0.980785 0.195090 -0.980785 0.195090
-0.980785 0.195090 -1.000000 0.000000
-0.980785 0.195090 -0.980785 -0.195090
-0.980785 0.195090 -0.923880 -0.382683
-0.980785 0.195090 -0.831470 -0.555570
-0.980785 0.195090 -0.707107 -0.707107
-0.980785 0.195090 -0.555570 -0.831470
-0.980785 0.195090 -0.382683 -0.923880
-0.980785 0.195090 -0.195090 -0.980785
-0.980785 0.195090 -0.000000 -1.000000
-0.980785 0.195090 0.195090 -0.980785
-0.980785 0.195090 0.382683 -0.923880
-0.980785 0.195090 0.555570 -0.831470
-0.980785 0.195090 0.707107 -0.707107
-0.980785 0.195090 0.831470 -0.555570
-0.980785 0.195090 0.923880 -0.382683
-0.980785 0.195090 0.980785 -0.195090
-1.000000 0.000000 1.000000 0.000000
-1.000000 0.000000 0.980785 0.195090
-1.000000 0.000000 0.923880 0.382683
-1.000000 0.000000 0.831470 0.555570
-1.000000 0.000000 0.707107 0.707107
-1.000000 0.000000 0.555570 0.831470
-1.000000 0.000000 0.382683 0.923880
-1.000000 0.000000 0.195090 0.980785
-1.000000 0.000000 0.000000 1.000000
-1.000000 0.000000 -0.195090 0.980785
-1.000000 0.000000 -0.382683 0.923880
-1.000000 0.000000 -0.555570 0.831470
-1.000000 0.000000 -0.707107 0.707107
-1.000000 0.000000 -0.831470 0.555570
-1.000000 0.000000 -0.923880 0.382683
-1.000000 0.000000 -0.980785 0.195090
-1.000000 0.000000 -1.000000 0.000000
-1.000000 0.000000 -0.980785 -0.195090
-1.000000 0.000000 -0.923880 -0.382683
-1.000000 0.000000 -0.831470 -0.555570
-1.000000 0.000000 -0.707107 -0.707107
-1.000000 0.000000 -0.555570 -0.831470
-1.000000 0.000000 -0.382683 -0.923880
-1.000000 0.000000 -0.195090 -0.980785
-1.000000 0.000000 -0.000000 -1.000000
-1.000000 0.000000 0.195090 -0.980785
-1.000000 0.000000 0.382683 -0.923880
-1.000000 0.000000 0.555570 -0.831470
-1.000000 0.000000 0.707107 -0.707107
-1.000000 0.000000 0.831470 -0.555570
-1.000000 0.000000 0.923880 -0.382683
-1.000000 0.000000 0.980785 -0.195090
-0.980785 -0.195090 1.000000 0.000000
-0.980785 -0.195090 0.980785 0.195090
-0.980785 -0.195090 0.923880 0.382683
-0.980785 -0.195090 0.831470 0.555570
-0.980785 -0.195090 0.707107 0.707107
-0.980785 -0.195090 0.555570 0.831470
-0.980785 -0.195090 0.382683 0.923880
-0.980785 -0.195090 0.195090 0.980785
-0.980785 -0.195090 0.000000 1.000000
-0.980785 -0.195090 -0.195090 0.980785
-0.980785 -0.195090 -0.382683 0.923880
-0.980785 -0.195090 -0.555570 0.831470
-0.980785 -0.195090 -0.707107 0.707107
-0.980785 -0.195090 -0.831470 0.555570
-0.980785 -0.195090 -0.923880 0.382683
-0.980785 -0.195090 -0.980785 0.195090
-0.980785 -0.195090 -1.000000 0.000000
-0.980785 -0.195090 -0.980785 -0.195090
-0.980785 -0.195090 -0.923880 -0.382683
-0.980785 -0.195090 -0.831470 -0.555570
-0.980785 -0.195090 -0.707107 -0.707107
-0.980785 -0.195090 -0.555570 -0.831470
-0.980785 -0.195090 -0.382683 -0.923880
-0.980785 -0.195090 -0.195090 -0.980785
-0.980785 -0.195090 -0.000000 -1.000000
-0.980785 -0.195090 0.195090 -0.980785
-0.980785 -0.195090 0.382683 -0.923880
-0.980785 -0.195090 0.555570 -0.831470
-0.980785 -0.195090 0.707107 -0.707107
-0.980785 -0.195090 0.831470 -0.555570
-0.980785 -0.195090 0.923880 -0.382683
-0.980785 -0.195090 0.980785 -0.195090
-0.923880 -0.382683 1.000000 0.000000
-0.923880 -0.382683 0.980785 0.195090
-0.923880 -0.382683 0.923880 0.382683
-0.923880 -0.382683 0.831470 0.555570
-0.923880 -0.382683 0.707107 0.707107
-0.923880 -0.382683 0.555570 0.831470
-0.923880 -0.382683 0.382683 0.923880
-0.923880 -0.382683 0.195090 0.980785
-0.923880 -0.382683 0.000000 1.000000
-0.923880 -0.382683 -0.195090 0.980785
-0.923880 -0.382683 -0.382683 0.923880
-0.923880 -0.382683 -0.555570 0.831470
-0.923880 -0.382683 -0.707107 0.707107
-0.923880 -0.382683 -0.831470 0.555570
-0.923880 -0.382683 -0.923880 0.382683
-0.923880 -0.382683 -0.980785 0.195090
-0.923880 -0.382683 -1.000000 0.000000
-0.923880 -0.382683 -0.980785 -0.195090
-0.923880 -0.382683 -0.923880 -0.382683
-0.923880 -0.382683 -0.831470 -0.555570
-0.923880 -0.382683 -0.707107 -0.707107
-0.923880 -0.382683 -0.555570 -0.831470
-0.923880 -0.382683 -0.382683 -0.923880
-0.923880 -0.382683 -0.195090 -0.980785
-0.923880 -0.382683 -0.000000 -1.000000
-0.923880 -0.382683 0.195090 -0.980785
-0.923880 -0.382683 0.382683 -0.923880
-0.923880 -0.382683 0.555570 -0.831470
-0.923880 -0.382683 0.707107 -0.707107
-0.923880 -0.382683 0.831470 -0.555570
-0.923880 -0.382683 0.923880 -0.382683
-0.923880 -0.382683 0.980785 -0.195090
-0.831470 -0.555570 1.000000 0.000000
-0.831470 -0.555570 0.980785 0.195090
-0.831470 -0.555570 0.923880 0.382683
-0.831470 -0.555570 0.831470 0.555570
-0.831470 -0.555570 0.707107 0.707107
-0.831470 -0.555570 0.555570 0.831470
-0.831470 -0.555570 0.382683 0.923880
-0.831470 -0.555570 0.195090 0.980785
-0.831470 -0.555570 0.000000 1.000000
-0.831470 -0.555570 -0.195090 0.980785
-0.831470 -0.555570 -0.382683 0.923880
-0.831470 -0.555570 -0.555570 0.831470
-0.831470 -0.555570 -0.707107 0.707107
-0.831470 -0.555570 -0.831470 0.555570
-0.831470 -0.555570 -0.923880 0.382683
-0.831470 -0.555570 -0.980785 0.195090
-0.831470 -0.555570 -1.000000 0.000000
-0.831470 -0.555570 -0.980785 -0.195090
-0.831470 -0.555570 -0.923880 -0.382683
-0.831470 -0.555570 -0.831470 -0.555570
-0.831470 -0.555570 -0.707107 -0.707107
-0.831470 -0.555570 -0.555570 -0.831470
-0.831470 -0.555570 -0.382683 -0.923880
-0.831470 -0.555570 -0.195090 -0.980785
-0.831470 -0.555570 -0.000000 -1.000000
-0.831470 -0.555570 0.195090 -0.980785
-0.831470 -0.555570 0.382683 -0.923880
-0.831470 -0.555570 0.555570 -0.831470
-0.831470 -0.555570 0.707107 -0.707107
-0.831470 -0.555570 0.831470 -0.555570
-0.831470 -0.555570 0.923880 -0.382683
-0.831470 -0.555570 0.980785 -0.195090
-0.707107 -0.707107 1.000000 0.000000
-0.707107 -0.707107 0.980785 0.195090
-0.707107 -0.707107 0.923880 0.382683
-0.707107 -0.707107 0.831470 0.555570
-0.707107 -0.707107 0.707107 0.707107
-0.707107 -0.707107 0.555570 0.831470
-0.707107 -0.707107 0.382683 0.923880
-0.707107 -0.707107 0.195090 0.980785
-0.707107 -0.707107 0.000000 1.000000
-0.707107 -0.707107 -0.195090 0.980785
-0.707107 -0.707107 -0.382683 0.923880
-0.707107 -0.707107 -0.555570 0.831470
-0.707107 -0.707107 -0.707107 0.707107
-0.707107 -0.707107 -0.831470 0.555570
-0.707107 -0.707107 -0.923880 0.382683
-0.707107 -0.707107 -0.980785 0.195090
-0.707107 -0.707107 -1.000000 0.000000
-0.707107 -0.707107 -0.980785 -0.195090
-0.707107 -0.707107 -0.923880 -0.382683
-0.707107 -0.707107 -0.831470 -0.555570
-0.707107 -0.707107 -0.707107 -0.707107
-0.707107 -0.707107 -0.555570 -0.831470
-0.707107 -0.707107 -0.382683 -0.923880
-0.707107 -0.707107 -0.195090 -0.980785
-0.707107 -0.707107 -0.000000 -1.000000
-0.707107 -0.707107 0.195090 -0.980785
-0.707107 -0.707107 0.382683 -0.923880
-0.707107 -0.707107 0.555570 -0.831470
-0.707107 -0.707107 0.707107 -0.707107
-0.707107 -0.707107 0.831470 -0.555570
-0.707107 -0.707107 0.923880 -0.382683
-0.707107 -0.707107 0.980785 -0.195090
-0.555570 -0.831470 1.000000 0.000000
-0.555570 -0.831470 0.980785 0.195090
-0.555570 -0.831470 0.923880 0.382683
-0.555570 -0.831470 0.831470 0.555570
-0.555570 -0.831470 0.707107 0.707107
-0.555570 -0.831470 0.555570 0.831470
-0.555570 -0.831470 0.382683 0.923880
-0.555570 -0.831470 0.195090 0.980785
-0.555570 -0.831470 0.000000 1.000000
-0.555570 -0.831470 -0.195090 0.980785
-0.555570 -0.831470 -0.382683 0.923880
-0.555570 -0.831470 -0.555570 0.831470
-0.555570 -0.831470 -0.707107 0.707107
-0.555570 -0.831470 -0.831470 0.555570
-0.555570 -0.831470 -0.923880 0.382683
-0.555570 -0.831470 -0.980785 0.195090
-0.555570 -0.831470 -1.000000 0.000000
-0.555570 -0.831470 -0.980785 -0.195090
-0.555570 -0.831470 -0.923880 -0.382683
-0.555570 -0.831470 -0.831470 -0.555570
-0.555570 -0.831470 -0.707107 -0.707107
-0.555570 -0.831470 -0.555570 -0.831470
-0.555570 -0.831470 -0.382683 -0.923880
-0.555570 -0.831470 -0.195090 -0.980785
-0.555570 -0.831470 -0.000000 -1.000000
-0.555570 -0.831470 0.195090 -0.980785
-0.555570 -0.831470 0.382683 -0.923880
-0.555570 -0.831470 0.555570 -0.831470
-0.555570 -0.831470 0.707107 -0.707107
-0.555570 -0.831470 0.831470 -0.555570
-0.555570 -0.831470 0.923880 -0.382683
-0.555570 -0.831470 0.980785 -0.195090
-0.382683 -0.923880 1.000000 0.000000
-0.382683 -0.923880 0.980785 0.195090
-0.382683 -0.923880 0.923880 0.382683
-0.382683 -0.923880 0.831470 0.555570
-0.382683 -0.923880 0.707107 0.707107
-0.382683 -0.923880 0.555570 0.831470
-0.382683 -0.923880 0.382683 0.923880
-0.382683 -0.923880 0.195090 0.980785
-0.382683 -0.923880 0.000000 1.000000
-0.382683 -0.923880 -0.195090 0.980785
-0.382683 -0.923880 -0.382683 0.923880
-0.382683 -0.923880 -0.555570 0.831470
-0.382683 -0.923880 -0.707107 0.707107
-0.382683 -0.923880 -0.831470 0.555570
-0.382683 -0.923880 -0.923880 0.382683
-0.382683 -0.923880 -0.980785 0.195090
-0.382683 -0.923880 -1.000000 0.000000
-0.382683 -0.923880 -0.980785 -0.195090
-0.382683 -0.923880 -0.923880 -0.382683
-0.382683 -0.923880 -0.831470 -0.555570
-0.382683 -0.923880 -0.707107 -0.707107
-0.382683 -0.923880 -0.555570 -0.831470
-0.382683 -0.923880 -0.382683 -0.923880
-0.382683 -0.923880 -0.195090 -0.980785
-0.382683 -0.923880 -0.000000 -1.000000
-0.382683 -0.923880 0.195090 -0.980785
-0.382683 -0.923880 0.382683 -0.923880
-0.382683 -0.923880 0.555570 -0.831470
-0.382683 -0.923880 0.707107 -0.707107
-0.382683 -0.923880 0.831470 -0.555570
-0.382683 -0.923880 0.923880 -0.382683
-0.382683 -0.923880 0.980785 -0.195090
-0.195090 -0.980785 1.000000 0.000000
-0.195090 -0.980785 0.980785 0.195090
-0.195090 -0.980785 0.923880 0.382683
-0.195090 -0.980785 0.831470 0.555570
-0.195090 -0.980785 0.707107 0.707107
-0.195090 -0.980785 0.555570 0.831470
-0.195090 -0.980785 0.382683 0.923880
-0.195090 -0.980785 0.195090 0.980785
-0.195090 -0.980785 0.000000 1.000000
-0.195090 -0.980785 -0.195090 0.980785
-0.195090 -0.980785 -0.382683 0.923880
-0.195090 -0.980785 -0.555570 0.831470
-0.195090 -0.980785 -0.707107 0.707107
-0.195090 -0.980785 -0.831470 0.555570
-0.195090 -0.980785 -0.923880 0.382683
-0.195090 -0.980785 -0.980785 0.195090
-0.195090 -0.980785 -1.000000 0.000000
-0.195090 -0.980785 -0.980785 -0.195090
-0.195090 -0.980785 -0.923880 -0.382683
-0.195090 -0.980785 -0.831470 -0.555570
-0.195090 -0.980785 -0.707107 -0.707107
-0.195090 -0.980785 -0.555570 -0.831470
-0.195090 -0.980785 -0.382683 -0.923880
-0.195090 -0.980785 -0.195090 -0.980785
-0.195090 -0.980785 -0.000000 -1.000000
-0.195090 -0.980785 0.195090 -0.980785
-0.195090 -0.980785 0.382683 -0.923880
-0.195090 -0.980785 0.555570 -0.831470
-0.195090 -0.980785 0.707107 -0.707107
-0.195090 -0.980785 0.831470 -0.555570
-0.195090 -0.980785 0.923880 -0.382683
-0.195090 -0.980785 0.980785 -0.195090
-0.000000 -1.000000 1.000000 0.000000
-0.000000 -1.000000 0.980785 0.195090
-0.000000 -1.000000 0.923880 0.382683
-0.000000 -1.000000 0.831470 0.555570
-0.000000 -1.000000 0.707107 0.707107
-0.000000 -1.000000 0.555570 0.831470
-0.000000 -1.000000 0.382683 0.923880
-0.000000 -1.000000 0.195090 0.980785
-0.000000 -1.000000 0.000000 1.000000
-0.000000 -1.000000 -0.195090 0.980785
-0.000000 -1.000000 -0.382683 0.923880
-0.000000 -1.000000 -0.555570 0.831470
-0.000000 -1.000000 -0.707107 0.707107
-0.000000 -1.000000 -0.831470 0.555570
-0.000000 -1.000000 -0.923880 0.382683
-0.000000 -1.000000 -0.980785 0.195090
-0.000000 -1.000000 -1.000000 0.000000
-0.000000 -1.000000 -0.980785 -0.195090
-0.000000 -1.000000 -0.923880 -0.382683
-0.000000 -1.000000 -0.831470 -0.555570
-0.000000 -1.000000 -0.707107 -0.707107
-0.000000 -1.000000 -0.555570 -0.831470
-0.000000 -1.000000 -0.382683 -0.923880
-0.000000 -1.000000 -0.195090 -0.980785
-0.000000 -1.000000 -0.000000 -1.000000
-0.000000 -1.000000 0.195090 -0.980785
-0.000000 -1.000000 0.382683 -0.923880
-0.000000 -1.000000 0.555570 -0.831470
-0.000000 -1.000000 0.707107 -0.707107
-0.000000 -1.000000 0.831470 -0.555570
-0.000000 -1.000000 0.923880 -0.382683
-0.000000 -1.000000 0.980785 -0.195090
0.195090 -0.980785 1.000000 0.000000
0.195090 -0.980785 0.980785 0.195090
0.195090 -0.980785 0.923880 0.382683
0.195090 -0.980785 0.831470 0.555570
0.195090 -0.980785 0.707107 0.707107
0.195090 -0.980785 0.555570 0.831470
0.195090 -0.980785 0.382683 0.923880
0.195090 -0.980785 0.195090 0.980785
0.195090 -0.980785 0.000000 1.000000
0.195090 -0.980785 -0.195090 0.980785
0.195090 -0.980785 -0.382683 0.923880
0.195090 -0.980785 -0.555570 0.831470
0.195090 -0.980785 -0.707107 0.707107
0.195090 -0.980785 -0.831470 0.555570
0.195090 -0.980785 -0.923880 0.382683
0.195090 -0.980785 -0.980785 0.195090
0.195090 -0.980785 -1.000000 0.000000
0.195090 -0.980785 -0.980785 -0.195090
0.195090 -0.980785 -0.923880 -0.382683
0.195090 -0.980785 -0.831470 -0.555570
0.195090 -0.980785 -0.707107 -0.707107
0.195090 -0.980785 -0.555570 -0.831470
0.195090 -0.980785 -0.382683 -0.923880
0.195090 -0.980785 -0.195090 -0.980785
0.195090 -0.980785 -0.000000 -1.000000
0.195090 -0.980785 0.195090 -0.980785
0.195090 -0.980785 0.382683 -0.923880
0.195090 -0.980785 0.555570 -0.831470
0.195090 -0.980785 0.707107 -0.707107
0.195090 -0.980785 0.831470 -0.555570
0.195090 -0.980785 0.923880 -0.382683
0.195090 -0.980785 0.980785 -0.195090
0.382683 -0.923880 1.000000 0.000000
0.382683 -0.923880 0.980785 0.195090
0.382683 -0.923880 0.923880 0.382683
0.382683 -0.923880 0.831470 0.555570
0.382683 -0.923880 0.707107 0.707107
0.382683 -0.923880 0.555570 0.831470
0.382683 -0.923880 0.382683 0.923880
0.382683 -0.923880 0.195090 0.980785
0.382683 -0.923880 0.000000 1.000000
0.382683 -0.923880 -0.195090 0.980785
0.382683 -0.923880 -0.382683 0.923880
0.382683 -0.923880 -0.555570 0.831470
0.382683 -0.923880 -0.707107 0.707107
0.382683 -0.923880 -0.831470 0.555570
0.382683 -0.923880 -0.923880 0.382683
0.382683 -0.923880 -0.980785 0.195090
0.382683 -0.923880 -1.000000 0.000000
0.382683 -0.923880 -0.980785 -0.195090
0.382683 -0.923880 -0.923880 -0.382683
0.382683 -0.923880 -0.831470 -0.555570
0.382683 -0.923880 -0.707107 -0.707107
0.382683 -0.923880 -0.555570 -0.831470
0.382683 -0.923880 -0.382683 -0.923880
0.382683 -0.923880 -0.195090 -0.980785
0.382683 -0.923880 -0.000000 -1.000000
0.382683 -0.923880 0.195090 -0.980785
0.382683 -0.923880 0.382683 -0.923880
0.382683 -0.923880 0.555570 -0.831470
0.382683 -0.923880 0.707107 -0.707107
0.382683 -0.923880 0.831470 -0.555570
0.382683 -0.923880 0.923880 -0.382683
0.382683 -0.923880 0.980785 -0.195090
0.555570 -0.831470 1.000000 0.000000
0.555570 -0.831470 0.980785 0.195090
0.555570 -0.831470 0.923880 0.382683
0.555570 -0.831470 0.831470 0.555570
0.555570 -0.831470 0.707107 0.707107
0.555570 -0.831470 0.555570 0.831470
0.555570 -0.831470 0.382683 0.923880
0.555570 -0.831470 0.195090 0.980785
0.555570 -0.831470 0.000000 1.000000
0.555570 -0.831470 -0.195090 0.980785
0.555570 -0.831470 -0.382683 0.923880
0.555570 -0.831470 -0.555570 0.831470
0.555570 -0.831470 -0.707107 0.707107
0.555570 -0.831470 -0.831470 0.555570
0.555570 -0.831470 -0.923880 0.382683
0.555570 -0.831470 -0.980785 0.195090
0.555570 -0.831470 -1.000000 0.000000
0.555570 -0.831470 -0.980785 -0.195090
0.555570 -0.831470 -0.923880 -0.382683
0.555570 -0.831470 -0.831470 -0.555570
0.555570 -0.831470 -0.707107 -0.707107
0.555570 -0.831470 -0.555570 -0.831470
0.555570 -0.831470 -0.382683 -0.923880
0.555570 -0.831470 -0.195090 -0.980785
0.555570 -0.831470 -0.000000 -1.000000
0.555570 -0.831470 0.195090 -0.980785
0.555570 -0.831470 0.382683 -0.923880
0.555570 -0.831470 0.555570 -0.831470
0.555570 -0.831470 0.707107 -0.707107
0.555570 -0.831470 0.831470 -0.555570
0.555570 -0.831470 0.923880 -0.382683
0.555570 -0.831470 0.980785 -0.195090
0.707107 -0.707107 1.000000 0.000000
0.707107 -0.707107 0.980785 0.195090
0.707107 -0.707107 0.923880 0.382683
0.707107 -0.707107 0.831470 0.555570
0.707107 -0.707107 0.707107 0.707107
0.707107 -0.707107 0.555570 0.831470
0.707107 -0.707107 0.382683 0.923880
0.707107 -0.707107 0.195090 0.980785
0.707107 -0.707107 0.000000 1.000000
0.707107 -0.707107 -0.195090 0.980785
0.707107 -0.707107 -0.382683 0.923880
0.707107 -0.707107 -0.555570 0.831470
0.707107 -0.707107 -0.707107 0.707107
0.707107 -0.707107 -0.831470 0.555570
0.707107 -0.707107 -0.923880 0.382683
0.707107 -0.707107 -0.980785 0.195090
0.707107 -0.707107 -1.000000 0.000000
0.707107 -0.707107 -0.980785 -0.195090
0.707107 -0.707107 -0.923880 -0.382683
0.707107 -0.707107 -0.831470 -0.555570
0.707107 -0.707107 -0.707107 -0.707107
0.707107 -0.707107 -0.555570 -0.831470
0.707107 -0.707107 -0.382683 -0.923880
0.707107 -0.707107 -0.195090 -0.980785
0.707107 -0.707107 -0.000000 -1.000000
0.707107 -0.707107 0.195090 -0.980785
0.707107 -0.707107 0.382683 -0.923880
0.707107 -0.707107 0.555570 -0.831470
0.707107 -0.707107 0.707107 -0.707107
0.707107 -0.707107 0.831470 -0.555570
0.707107 -0.707107 0.923880 -0.382683
0.707107 -0.707107 0.980785 -0.195090
0.831470 -0.555570 1.000000 0.000000
0.831470 -0.555570 0.980785 0.195090
0.831470 -0.555570 0.923880 0.382683
0.831470 -0.555570 0.831470 0.555570
0.831470 -0.555570 0.707107 0.707107
0.831470 -0.555570 0.555570 0.831470
0.831470 -0.555570 0.382683 0.923880
0.831470 -0.555570 0.195090 0.980785
0.831470 -0.555570 0.000000 1.000000
0.831470 -0.555570 -0.195090 0.980785
0.831470 -0.555570 -0.382683 0.923880
0.831470 -0.555570 -0.555570 0.831470
0.831470 -0.555570 -0.707107 0.707107
0.831470 -0.555570 -0.831470 0.555570
0.831470 -0.555570 -0.923880 0.382683
0.831470 -0.555570 -0.980785 0.195090
0.831470 -0.555570 -1.000000 0.000000
0.831470 -0.555570 -0.980785 -0.195090
0.831470 -0.555570 -0.923880 -0.382683
0.831470 -0.555570 -0.831470 -0.555570
0.831470 -0.555570 -0.707107 -0.707107
0.831470 -0.555570 -0.555570 -0.831470
0.831470 -0.555570 -0.382683 -0.923880
0.831470 -0.555570 -0.195090 -0.980785
0.831470 -0.555570 -0.000000 -1.000000
0.831470 -0.555570 0.195090 -0.980785
0.831470 -0.555570 0.382683 -0.923880
0.831470 -0.555570 0.555570 -0.831470
0.831470 -0.555570 0.707107 -0.707107
0.831470 -0.555570 0.831470 -0.555570
0.831470 -0.555570 0.923880 -0.382683
0.831470 -0.555570 0.980785 -0.195090
0.923880 -0.382683 1.000000 0.000000
0.923880 -0.382683 0.980785 0.195090
0.923880 -0.382683 0.923880 0.382683
0.923880 -0.382683 0.831470 0.555570
0.923880 -0.382683 0.707107 0.707107
0.923880 -0.382683 0.555570 0.831470
0.923880 -0.382683 0.382683 0.923880
0.923880 -0.382683 0.195090 0.980785
0.923880 -0.382683 0.000000 1.000000
0.923880 -0.382683 -0.195090 0.980785
0.923880 -0.382683 -0.382683 0.923880
0.923880 -0.382683 -0.555570 0.831470
0.923880 -0.382683 -0.707107 0.707107
0.923880 -0.382683 -0.831470 0.555570
0.923880 -0.382683 -0.923880 0.382683
0.923880 -0.382683 -0.980785 0.195090
0.923880 -0.382683 -1.000000 0.000000
0.923880 -0.382683 -0.980785 -0.195090
0.923880 -0.382683 -0.923880 -0.382683
0.923880 -0.382683 -0.831470 -0.555570
0.923880 -0.382683 -0.707107 -0.707107
0.923880 -0.382683 -0.555570 -0.831470
0.923880 -0.382683 -0.382683 -0.923880
0.923880 -0.382683 -0.195090 -0.980785
0.923880 -0.382683 -0.000000 -1.000000
0.923880 -0.382683 0.195090 -0.980785
0.923880 -0.382683 0.382683 -0.923880
0.923880 -0.382683 0.555570 -0.831470
0.923880 -0.382683 0.707107 -0.707107
0.923880 -0.382683 0.831470 -0.555570
0.923880 -0.382683 0.923880 -0.382683
0.923880 -0.382683 0.980785 -0.195090
0.980785 -0.195090 1.000000 0.000000
0.980785 -0.195090 0.980785 0.195090
0.980785 -0.195090 0.923880 0.382683
0.980785 -0.195090 0.831470 0.555570
0.980785 -0.195090 0.707107 0.707107
0.980785 -0.195090 0.555570 0.831470
0.980785 -0.195090 0.382683 0.923880
0.980785 -0.195090 0.195090 0.980785
0.980785 -0.195090 0.000000 1.000000
0.980785 -0.195090 -0.195090 0.980785
0.980785 -0.195090 -0.382683 0.923880
0.980785 -0.195090 -0.555570 0.831470
0.980785 -0.195090 -0.707107 0.707107
0.980785 -0.195090 -0.831470 0.555570
0.980785 -0.195090 -0.923880 0.382683
0.980785 -0.195090 -0.980785 0.195090
0.980785 -0.195090 -1.000000 0.000000
0.980785 -0.195090 -0.980785 -0.195090
0.980785 -0.195090 -0.923880 -0.382683
0.980785 -0.195090 -0.831470 -0.555570
0.980785 -0.195090 -0.707107 -0.707107
0.980785 -0.195090 -0.555570 -0.831470
0.980785 -0.195090 -0.382683 -0.923880
0.980785 -0.195090 -0.195090 -0.980785
0.980785 -0.195090 -0.000000 -1.000000
0.980785 -0.195090 0.195090 -0.980785
0.980785 -0.195090 0.382683 -0.923880
0.980785 -0.195090 0.555570 -0.831470
0.980785 -0.195090 0.707107 -0.707107
0.980785 -0.195090 0.831470 -0.555570
0.980785 -0.195090 0.923880 -0.382683
0.980785 -0.195090 0.980785 -0.195090
3 0 32 33
3 0 33 1
3 1 33 34
3 1 34 2
3 2 34 35
3 2 35 3
3 3 35 36
3 3 36 4
3 4 36 37
3 4 37 5
3 5 37 38
3 5 38 6
3 6 38 39
3 6 39 7
3 7 39 40
3 7 40 8
3 8 40 41
3 8 41 9
3 9 41 42
3 9 42 10
3 10 42 43
3 10 43 11
3 11 43 44
3 11 44 12
3 12 44 45
3 12 45 13
3 13 45 46
3 13 46 14
3 14 46 47
3 14 47 15
3 15 47 48
3 15 48 16
3 16 48 49
3 16 49 17
3 17 49 50
3 17 50 18
3 18 50 51
3 18 51 19
3 19 51 52
3 19 52 20
3 20 52 53
3 20 53 21
3 21 53 54
3 21 54 22
3 22 54 55
3 22 55 23
3 23 55 56
3 23 56 24
3 24 56 57
3 24 57 25
3 25 57 58
3 25 58 26
3 26 58 59
3 26 59 27
3 27 59 60
3 27 60 28
3 28 60 61
3 28 61 29
3 29 61 62
3 29 62 30
3 30 62 63
3 30 63 31
3 31 63 32
3 31 32 0
3 32 64 65
3 32 65 33
3 33 65 66
3 33 66 34
3 34 66 67
3 34 67 35
3 35 67 68
3 35 68 36
3 36 68 69
3 36 69 37
3 37 69 70
3 37 70 38
3 38 70 71
3 38 71 39
3 39 71 72
3 39 72 40
3 40 72 73
3 40 73 41
3 41 73 74
3 41 74 42
3 42 74 75
3 42 75 43
3 43 75 76
3 43 76 44
3 44 76 77
3 44 77 45
3 45 77 78
3 45 78 46
3 46 78 79
3 46 79 47
3 47 79 80
3 47 80 48
3 48 80 81
3 48 81 49
3 49 81 82
3 49 82 50
3 50 82 83
3 50 83 51
3 51 83 84
3 51 84 52
3 52 84 85
3 52 85 53
3 53 85 86
3 53 86 54
3 54 86 87
3 54 87 55
3 55 87 88
3 55 88 56
3 56 88 89
3 56 89 57
3 57 89 90
3 57 90 58
3 58 90 91
3 58 91 59
3 59 91 92
3 59 92 60
3 60 92 93
3 60 93 61
3 61 93 94
3 61 94 62
3 62 94 95
3 62 95 63
3 63 95 64
3 63 64 32
3 64 96 97
3 64 97 65
3 65 97 98
3 65 98 66
3 66 98 99
3 66 99 67
3 67 99 100
3 67 100 68
3 68 100 101
3 68 101 69
3 69 101 102
3 69 102 70
3 70 102 103
3 70 103 71
3 71 103 104
3 71 104 72
3 72 104 105
3 72 105 73
3 73 105 106
3 73 106 74
3 74 106 107
3 74 107 75
3 75 107 108
3 75 108 76
3 76 108 109
3 76 109 77
3 77 109 110
3 77 110 78
3 78 110 111
3 78 111 79
3 79 111 112
3 79 112 80
3 80 112 113
3 80 113 81
3 81 113 114
3 81 114 82
3 82 114 115
3 82 115 83
3 83 115 116
3 83 116 84
3 84 116 117
3 84 117 85
3 85 117 118
3 85 118 86
3 86 118 119
3 86 119 87
3 87 119 120
3 87 120 88
3 88 120 121
3 88 121 89
3 89 121 122
3 89 122 90
3 90 122 123
3 90 123 91
3 91 123 124
3 91 124 92
3 92 124 125
3 92 125 93
3 93 125 126
3 93 126 94
3 94 126 127
3 94 127 95
3 95 127 96
3 95 96 64
3 96 128 129
3 96 129 97
3 97 129 130
3 97 130 98
3 98 130 131
3 98 131 99
3 99 131 132
3 99 132 100
3 100 132 133
3 100 133 101
3 101 133 134
3 101 134 102
3 102 134 135
3 102 135 103
3 103 135 136
3 103 136 104
3 104 136 137
3 104 137 105
3 105 137 138
3 105 138 106
3 106 138 139
3 106 139 107
3 107 139 140
3 107 140 108
3 108 140 141
3 108 141 109
3 109 141 142
3 109 142 110
3 110 142 143
3 110 143 111
3 111 143 144
3 111 144 112
3 112 144 145
3 112 145 113
3 113 145 146
3 113 146 114
3 114 146 147
3 114 147 115
3 115 147 148
3 115 148 116
3 116 148 149
3 116 149 117
3 117 149 150
3 117 150 118
3 118 150 151
3 118 151 119
3 119 151 152
3 119 152 120
3 120 152 153
3 120 153 121
3 121 153 154
3 121 154 122
3 122 154 155
3 122 155 123
3 123 155 156
3 123 156 124
3 124 156 157
3 124 157 125
3 125 157 158
3 125 158 126
3 126 158 159
3 126 159 127
3 127 159 128
3 127 128 96
3 128 160 161
3 128 161 129
3 129 161 162
3 129 162 130
3 130 162 163
3 130 163 131
3 131 163 164
3 131 164 132
3 132 164 165
3 132 165 133
3 133 165 166
3 133 166 134
3 134 166 167
3 134 167 135
3 135 167 168
3 135 168 136
3 136 168 169
3 136 169 137
3 137 169 170
3 137 170 138
3 138 170 171
3 138 171 139
3 139 171 172
3 139 172 140
3 140 172 173
3 140 173 141
3 141 173 174
3 141 174 142
3 142 174 175
3 142 175 143
3 143 175 176
3 143 176 144
3 144 176 177
3 144 177 145
3 145 177 178
3 145 178 146
3 146 178 179
3 146 179 147
3 147 179 180
3 147 180 148
3 148 180 181
3 148 181 149
3 149 181 182
3 149 182 150
3 150 182 183
3 150 183 151
3 151 183 184
3 151 184 152
3 152 184 185
3 152 185 153
3 153 185 186
3 153 186 154
3 154 186 187
3 154 187 155
3 155 187 188
3 155 188 156
3 156 188 189
3 156 189 157
3 157 189 190
3 157 190 158
3 158 190 191
3 158 191 159
3 159 191 160
3 159 160 128
3 160 192 193
3 160 193 161
3 161 193 194
3 161 194 162
3 162 194 195
3 162 195 163
3 163 195 196
3 163 196 164
3 164 196 197
3 164 197 165
3 165 197 198
3 165 198 166
3 166 198 199
3 166 199 167
3 167 199 200
3 167 200 168
3 168 200 201
3 168 201 169
3 169 201 202
3 169 202 170
3 170 202 203
3 170 203 171
3 171 203 204
3 171 204 172
3 172 204 205
3 172 205 173
3 173 205 206
3 173 206 174
3 174 206 207
3 174 207 175
3 175 207 208
3 175 208 176
3 176 208 209
3 176 209 177
3 177 209 210
3 177 210 178
3 178 210 211
3 178 211 179
3 179 211 212
3 179 212 180
3 180 212 213
3 180 213 181
3 181 213 214
3 181 214 182
3 182 214 215
3 182 215 183
3 183 215 216
3 183 216 184
3 184 216 217
3 184 217 185
3 185 217 218
3 185 218 186
3 186 218 219
3 186 219 187
3 187 219 220
3 187 220 188
3 188 220 221
3 188 221 189
3 189 221 222
3 189 222 190
3 190 222 223
3 190 223 191
3 191 223 192
3 191 192 160
3 192 224 225
3 192 225 193
3 193 225 226
3 193 226 194
3 194 226 227
3 194 227 195
3 195 227 228
3 195 228 196
3 196 228 229
3 196 229 197
3 197 229 230
3 197 230 198
3 198 230 231
3 198 231 199
3 199 231 232
3 199 232 200
3 200 232 233
3 200 233 201
3 201 233 234
3 201 234 202
3 202 234 235
3 202 235 203
3 203 235 236
3 203 236 204
3 204 236 237
3 204 237 205
3 205 237 238
3 205 238 206
3 206 238 239
3 206 239 207
3 207 239 240
3 207 240 208
3 208 240 241
3 208 241 209
3 209 241 242
3 209 242 210
3 210 242 243
3 210 243 211
3 211 243 244
3 211 244 212
3 212 244 245
3 212 245 213
3 213 245 246
3 213 246 214
3 214 246 247
3 214 247 215
3 215 247 248
3 215 248 216
3 216 248 249
3 216 249 217
3 217 249 250
3 217 250 218
3 218 250 251
3 218 251 219
3 219 251 252
3 219 252 220
3 220 252 253
3 220 253 221
3 221 253 254
3 221 254 222
3 222 254 255
3 222 255 223
3 223 255 224
3 223 224 192
3 224 256 257
3 224 257 225
3 225 257 258
3 225 258 226
3 226 258 259
3 226 259 227
3 227 259 260
3 227 260 228
3 228 260 261
3 228 261 229
3 229 261 262
3 229 262 230
3 230 262 263
3 230 263 231
3 231 263 264
3 231 264 232
3 232 264 265
3 232 265 233
3 233 265 266
3 233 266 234
3 234 266 267
3 234 267 235
3 235 267 268
3 235 268 236
3 236 268 269
3 236 269 237
3 237 269 270
3 237 270 238
3 238 270 271
3 238 271 239
3 239 271 272
3 239 272 240
3 240 272 273
3 240 273 241
3 241 273 274
3 241 274 242
3 242 274 275
3 242 275 243
3 243 275 276
3 243 276 244
3 244 276 277
3 244 277 245
3 245 277 278
3 245 278 246
3 246 278 279
3 246 279 247
3 247 279 280
3 247 280 248
3 248 280 281
3 248 281 249
3 249 281 282
3 249 282 250
3 250 282 283
3 250 283 251
3 251 283 284
3 251 284 252
3 252 284 285
3 252 285 253
3 253 285 286
3 253 286 254
3 254 286 287
3 254 287 255
3 255 287 256
3 255 256 224
3 256 288 289
3 256 289 257
3 257 289 290
3 257 290 258
3 258 290 291
3 258 291 259
3 259 291 292
3 259 292 260
3 260 292 293
3 260 293 261
3 261 293 294
3 261 294 262
3 262 294 295
3 262 295 263
3 263 295 296
3 263 296 264
3 264 296 297
3 264 297 265
3 265 297 298
3 265 298 266
3 266 298 299
3 266 299 267
3 267 299 300
3 267 300 268
3 268 300 301
3 268 301 269
3 269 301 302
3 269 302 270
3 270 302 303
3 270 303 271
3 271 303 304
3 271 304 272
3 272 304 305
3 272 305 273
3 273 305 306
3 273 306 274
3 274 306 307
3 274 307 275
3 275 307 308
3 275 308 276
3 276 308 309
3 276 309 277
3 277 309 310
3 277 310 278
3 278 310 311
3 278 311 279
3 279 311 312
3 279 312 280
3 280 312 313
3 280 313 281
3 281 313 314
3 281 314 282
3 282 314 315
3 282 315 283
3 283 315 316
3 283 316 284
3 284 316 317
3 284 317 285
3 285 317 318
3 285 318 286
3 286 318 319
3 286 319 287
3 287 319 288
3 287 288 256
3 288 320 321
3 288 321 289
3 289 321 322
3 289 322 290
3 290 322 323
3 290 323 291
3 291 323 324
3 291 324 292
3 292 324 325
3 292 325 293
3 293 325 326
3 293 326 294
3 294 326 327
3 294 327 295
3 295 327 328
3 295 328 296
3 296 328 329
3 296 329 297
3 297 329 330
3 297 330 298
3 298 330 331
3 298 331 299
3 299 331 332
3 299 332 300
3 300 332 333
3 300 333 301
3 301 333 334
3 301 334 302
3 302 334 335
3 302 335 303
3 303 335 336
3 303 336 304
3 304 336 337
3 304 337 305
3 305 337 338
3 305 338 306
3 306 338 339
3 306 339 307
3 307 339 340
3 307 340 308
3 308 340 341
3 308 341 309
3 309 341 342
3 309 342 310
3 310 342 343
3 310 343 311
3 311 343 344
3 311 344 312
3 312 344 345
3 312 345 313
3 313 345 346
3 313 346 314
3 314 346 347
3 314 347 315
3 315 347 348
3 315 348 316
3 316 348 349
3 316 349 317
3 317 349 350
3 317 350 318
3 318 350 351
3 318 351 319
3 319 351 320
3 319 320 288
3 320 352 353
3 320 353 321
3 321 353 354
3 321 354 322
3 322 354 355
3 322 355 323
3 323 355 356
3 323 356 324
3 324 356 357
3 324 357 325
3 325 357 358
3 325 358 326
3 326 358 359
3 326 359 327
3 327 359 360
3 327 360 328
3 328 360 361
3 328 361 329
3 329 361 362
3 329 362 330
3 330 362 363
3 330 363 331
3 331 363 364
3 331 364 332
3 332 364 365
3 332 365 333
3 333 365 366
3 333 366 334
3 334 366 367
3 334 367 335
3 335 367 368
3 335 368 336
3 336 368 369
3 336 369 337
3 337 369 370
3 337 370 338
3 338 370 371
3 338 371 339
3 339 371 372
3 339 372 340
3 340 372 373
3 340 373 341
3 341 373 374
3 341 374 342
3 342 374 375
3 342 375 343
3 343 375 376
3 343 376 344
3 344 376 377
3 344 377 345
3 345 377 378
3 345 378 346
3 346 378 379
3 346 379 347
3 347 379 380
3 347 380 348
3 348 380 381
3 348 381 349
3 349 381 382
3 349 382 350
3 350 382 383
3 350 383 351
3 351 383 352
3 351 352 320
3 352 384 385
3 352 385 353
3 353 385 386
3 353 386 354
3 354 386 387
3 354 387 355
3 355 387 388
3 355 388 356
3 356 388 389
3 356 389 357
3 357 389 390
3 357 390 358
3 358 390 391
3 358 391 359
3 359 391 392
3 359 392 360
3 360 392 393
3 360 393 361
3 361 393 394
3 361 394 362
3 362 394 395
3 362 395 363
3 363 395 396
3 363 396 364
3 364 396 397
3 364 397 365
3 365 397 398
3 365 398 366
3 366 398 399
3 366 399 367
3 367 399 400
3 367 400 368
3 368 400 401
3 368 401 369
3 369 401 402
3 369 402 370
3 370 402 403
3 370 403 371
3 371 403 404
3 371 404 372
3 372 404 405
3 372 405 373
3 373 405 406
3 373 406 374
3 374 406 407
3 374 407 375
3 375 407 408
3 375 408 376
3 376 408 409
3 376 409 377
3 377 409 410
3 377 410 378
3 378 410 411
3 378 411 379
3 379 411 412
3 379 412 380
3 380 412 413
3 380 413 381
3 381 413 414
3 381 414 382
3 382 414 415
3 382 415 383
3 383 415 384
3 383 384 352
3 384 416 417
3 384 417 385
3 385 417 418
3 385 418 386
3 386 418 419
3 386 419 387
3 387 419 420
3 387 420 388
3 388 420 421
3 388 421 389
3 389 421 422
3 389 422 390
3 390 422 423
3 390 423 391
3 391 423 424
3 391 424 392
3 392 424 425
3 392 425 393
3 393 425 426
3 393 426 394
3 394 426 427
3 394 427 395
3 395 427 428
3 395 428 396
3 396 428 429
3 396 429 397
3 397 429 430
3 397 430 398
3 398 430 431
3 398 431 399
3 399 431 432
3 399 432 400
3 400 432 433
3 400 433 401
3 401 433 434
3 401 434 402
3 402 434 435
3 402 435 403
3 403 435 436
3 403 436 404
3 404 436 437
3 404 437 405
3 405 437 438
3 405 438 406
3 406 438 439
3 406 439 407
3 407 439 440
3 407 440 408
3 408 440 441
3 408 441 409
3 409 441 442
3 409 442 410
3 410 442 443
3 410 443 411
3 411 443 444
3 411 444 412
3 412 444 445
3 412 445 413
3 413 445 446
3 413 446 414
3 414 446 447
3 414 447 415
3 415 447 416
3 415 416 384
3 416 448 449
3 416 449 417
3 417 449 450
3 417 450 418
3 418 450 451
3 418 451 419
3 419 451 452
3 419 452 420
3 420 452 453
3 420 453 421
3 421 453 454
3 421 454 422
3 422 454 455
3 422 455 423
3 423 455 456
3 423 456 424
3 424 456 457
3 424 457 425
3 425 457 458
3 425 458 426
3 426 458 459
3 426 459 427
3 427 459 460
3 427 460 428
3 428 460 461
3 428 461 429
3 429 461 462
3 429 462 430
3 430 462 463
3 430 463 431
3 431 463 464
3 431 464 432
3 432 464 465
3 432 465 433
3 433 465 466
3 433 466 434
3 434 466 467
3 434 467 435
3 435 467 468
3 435 468 436
3 436 468 469
3 436 469 437
3 437 469 470
3 437 470 438
3 438 470 471
3 438 471 439
3 439 471 472
3 439 472 440
3 440 472 473
3 440 473 441
3 441 473 474
3 441 474 442
3 442 474 475
3 442 475 443
3 443 475 476
3 443 476 444
3 444 476 477
3 444 477 445
3 445 477 478
3 445 478 446
3 446 478 479
3 446 479 447
3 447 479 448
3 447 448 416
3 448 480 481
3 448 481 449
3 449 481 482
3 449 482 450
3 450 482 483
3 450 483 451
3 451 483 484
3 451 484 452
3 452 484 485
3 452 485 453
3 453 485 486
3 453 486 454
3 454 486 487
3 454 487 455
3 455 487 488
3 455 488 456
3 456 488 489
3 456 489 457
3 457 489 490
3 457 490 458
3 458 490 491
3 458 491 459
3 459 491 492
3 459 492 460
3 460 492 493
3 460 493 461
3 461 493 494
3 461 494 462
3 462 494 495
3 462 495 463
3 463 495 496
3 463 496 464
3 464 496 497
3 464 497 465
3 465 497 498
3 465 498 466
3 466 498 499
3 466 499 467
3 467 499 500
3 467 500 468
3 468 500 501
3 468 501 469
3 469 501 502
3 469 502 470
3 470 502 503
3 470 503 471
3 471 503 504
3 471 504 472
3 472 504 505
3 472 505 473
3 473 505 506
3 473 506 474
3 474 506 507
3 474 507 475
3 475 507 508
3 475 508 476
3 476 508 509
3 476 509 477
3 477 509 510
3 477 510 478
3 478 510 511
3 478 511 479
3 479 511 480
3 479 480 448
3 480 512 513
3 480 513 481
3 481 513 514
3 481 514 482
3 482 514 515
3 482 515 483
3 483 515 516
3 483 516 484
3 484 516 517
3 484 517 485
3 485 517 518
3 485 518 486
3 486 518 519
3 486 519 487
3 487 519 520
3 487 520 488
3 488 520 521
3 488 521 489
3 489 521 522
3 489 522 490
3 490 522 523
3 490 523 491
3 491 523 524
3 491 524 492
3 492 524 525
3 492 525 493
3 493 525 526
3 493 526 494
3 494 526 527
3 494 527 495
3 495 527 528
3 495 528 496
3 496 528 529
3 496 529 497
3 497 529 530
3 497 530 498
3 498 530 531
3 498 531 499
3 499 531 532
3 499 532 500
3 500 532 533
3 500 533 501
3 501 533 534
3 501 534 502
3 502 534 535
3 502 535 503
3 503 535 536
3 503 536 504
3 504 536 537
3 504 537 505
3 505 537 538
3 505 538 506
3 506 538 539
3 506 539 507
3 507 539 540
3 507 540 508
3 508 540 541
3 508 541 509
3 509 541 542
3 509 542 510
3 510 542 543
3 510 543 511
3 511 543 512
3 511 512 480
3 512 544 545
3 512 545 513
3 513 545 546
3 513 546 514
3 514 546 547
3 514 547 515
3 515 547 548
3 515 548 516
3 516 548 549
3 516 549 517
3 517 549 550
3 517 550 518
3 518 550 551
3 518 551 519
3 519 551 552
3 519 552 520
3 520 552 553
3 520 553 521
3 521 553 554
3 521 554 522
3 522 554 555
3 522 555 523
3 523 555 556
3 523 556 524
3 524 556 557
3 524 557 525
3 525 557 558
3 525 558 526
3 526 558 559
3 526 559 527
3 527 559 560
3 527 560 528
3 528 560 561
3 528 561 529
3 529 561 562
3 529 562 530
3 530 562 563
3 530 563 531
3 531 563 564
3 531 564 532
3 532 564 565
3 532 565 533
3 533 565 566
3 533 566 534
3 534 566 567
3 534 567 535
3 535 567 568
3 535 568 536
3 536 568 569
3 536 569 537
3 537 569 570
3 537 570 538
3 538 570 571
3 538 571 539
3 539 571 572
3 539 572 540
3 540 572 573
3 540 573 541
3 541 573 574
3 541 574 542
3 542 574 575
3 542 575 543
3 543 575 544
3 543 544 512
3 544 576 577
3 544 577 545
3 545 577 578
3 545 578 546
3 546 578 579
3 546 579 547
3 547 579 580
3 547 580 548
3 548 580 581
3 548 581 549
3 549 581 582
3 549 582 550
3 550 582 583
3 550 583 551
3 551 583 584
3 551 584 552
3 552 584 585
3 552 585 553
3 553 585 586
3 553 586 554
3 554 586 587
3 554 587 555
3 555 587 588
3 555 588 556
3 556 588 589
3 556 589 557
3 557 589 590
3 557 590 558
3 558 590 591
3 558 591 559
3 559 591 592
3 559 592 560
3 560 592 593
3 560 593 561
3 561 593 594
3 561 594 562
3 562 594 595
3 562 595 563
3 563 595 596
3 563 596 564
3 564 596 597
3 564 597 565
3 565 597 598
3 565 598 566
3 566 598 599
3 566 599 567
3 567 599 600
3 567 600 568
3 568 600 601
3 568 601 569
3 569 601 602
3 569 602 570
3 570 602 603
3 570 603 571
3 571 603 604
3 571 604 572
3 572 604 605
3 572 605 573
3 573 605 606
3 573 606 574
3 574 606 607
3 574 607 575
3 575 607 576
3 575 576 544
3 576 608 609
3 576 609 577
3 577 609 610
3 577 610 578
3 578 610 611
3 578 611 579
3 579 611 612
3 579 612 580
3 580 612 613
3 580 613 581
3 581 613 614
3 581 614 582
3 582 614 615
3 582 615 583
3 583 615 616
3 583 616 584
3 584 616 617
3 584 617 585
3 585 617 618
3 585 618 586
3 586 618 619
3 586 619 587
3 587 619 620
3 587 620 588
3 588 620 621
3 588 621 589
3 589 621 622
3 589 622 590
3 590 622 623
3 590 623 591
3 591 623 624
3 591 624 592
3 592 624 625
3 592 625 593
3 593 625 626
3 593 626 594
3 594 626 627
3 594 627 595
3 595 627 628
3 595 628 596
3 596 628 629
3 596 629 597
3 597 629 630
3 597 630 598
3 598 630 631
3 598 631 599
3 599 631 632
3 599 632 600
3 600 632 633
3 600 633 601
3 601 633 634
3 601 634 602
3 602 634 635
3 602 635 603
3 603 635 636
3 603 636 604
3 604 636 637
3 604 637 605
3 605 637 638
3 605 638 606
3 606 638 639
3 606 639 607
3 607 639 608
3 607 608 576
3 608 640 641
3 608 641 609
3 609 641 642
3 609 642 610
3 610 642 643
3 610 643 611
3 611 643 644
3 611 644 612
3 612 644 645
3 612 645 613
3 613 645 646
3 613 646 614
3 614 646 647
3 614 647 615
3 615 647 648
3 615 648 616
3 616 648 649
3 616 649 617
3 617 649 650
3 617 650 618
3 618 650 651
3 618 651 619
3 619 651 652
3 619 652 620
3 620 652 653
3 620 653 621
3 621 653 654
3 621 654 622
3 622 654 655
3 622 655 623
3 623 655 656
3 623 656 624
3 624 656 657
3 624 657 625
3 625 657 658
3 625 658 626
3 626 658 659
3 626 659 627
3 627 659 660
3 627 660 628
3 628 660 661
3 628 661 629
3 629 661 662
3 629 662 630
3 630 662 663
3 630 663 631
3 631 663 664
3 631 664 632
3 632 664 665
3 632 665 633
3 633 665 666
3 633 666 634
3 634 666 667
3 634 667 635
3 635 667 668
3 635 668 636
3 636 668 669
3 636 669 637
3 637 669 670
3 637 670 638
3 638 670 671
3 638 671 639
3 639 671 640
3 639 640 608
3 640 672 673
3 640 673 641
3 641 673 674
3 641 674 642
3 642 674 675
3 642 675 643
3 643 675 676
3 643 676 644
3 644 676 677
3 644 677 645
3 645 677 678
3 645 678 646
3 646 678 679
3 646 679 647
3 647 679 680
3 647 680 648
3 648 680 681
3 648 681 649
3 649 681 682
3 649 682 650
3 650 682 683
3 650 683 651
3 651 683 684
3 651 684 652
3 652 684 685
3 652 685 653
3 653 685 686
3 653 686 654
3 654 686 687
3 654 687 655
3 655 687 688
3 655 688 656
3 656 688 689
3 656 689 657
3 657 689 690
3 657 690 658
3 658 690 691
3 658 691 659
3 659 691 692
3 659 692 660
3 660 692 693
3 660 693 661
3 661 693 694
3 661 694 662
3 662 694 695
3 662 695 663
3 663 695 696
3 663 696 664
3 664 696 697
3 664 697 665
3 665 697 698
3 665 698 666
3 666 698 699
3 666 699 667
3 667 699 700
3 667 700 668
3 668 700 701
3 668 701 669
3 669 701 702
3 669 702 670
3 670 702 703
3 670 703 671
3 671 703 672
3 671 672 640
3 672 704 705
3 672 705 673
3 673 705 706
3 673 706 674
3 674 706 707
3 674 707 675
3 675 707 708
3 675 708 676
3 676 708 709
3 676 709 677
3 677 709 710
3 677 710 678
3 678 710 711
3 678 711 679
3 679 711 712
3 679 712 680
3 680 712 713
3 680 713 681
3 681 713 714
3 681 714 682
3 682 714 715
3 682 715 683
3 683 715 716
3 683 716 684
3 684 716 717
3 684 717 685
3 685 717 718
3 685 718 686
3 686 718 719
3 686 719 687
3 687 719 720
3 687 720 688
3 688 720 721
3 688 721 689
3 689 721 722
3 689 722 690
3 690 722 723
3 690 723 691
3 691 723 724
3 691 724 692
3 692 724 725
3 692 725 693
3 693 725 726
3 693 726 694
3 694 726 727
3 694 727 695
3 695 727 728
3 695 728 696
3 696 728 729
3 696 729 697
3 697 729 730
3 697 730 698
3 698 730 731
3 698 731 699
3 699 731 732
3 699 732 700
3 700 732 733
3 700 733 701
3 701 733 734
3 701 734 702
3 702 734 735
3 702 735 703
3 703 735 704
3 703 704 672
3 704 736 737
3 704 737 705
3 705 737 738
3 705 738 706
3 706 738 739
3 706 739 707
3 707 739 740
3 707 740 708
3 708 740 741
3 708 741 709
3 709 741 742
3 709 742 710
3 710 742 743
3 710 743 711
3 711 743 744
3 711 744 712
3 712 744 745
3 712 745 713
3 713 745 746
3 713 746 714
3 714 746 747
3 714 747 715
3 715 747 748
3 715 748 716
3 716 748 749
3 716 749 717
3 717 749 750
3 717 750 718
3 718 750 751
3 718 751 719
3 719 751 752
3 719 752 720
3 720 752 753
3 720 753 721
3 721 753 754
3 721 754 722
3 722 754 755
3 722 755 723
3 723 755 756
3 723 756 724
3 724 756 757
3 724 757 725
3 725 757 758
3 725 758 726
3 726 758 759
3 726 759 727
3 727 759 760
3 727 760 728
3 728 760 761
3 728 761 729
3 729 761 762
3 729 762 730
3 730 762 763
3 730 763 731
3 731 763 764
3 731 764 732
3 732 764 765
3 732 765 733
3 733 765 766
3 733 766 734
3 734 766 767
3 734 767 735
3 735 767 736
3 735 736 704
3 736 768 769
3 736 769 737
3 737 769 770
3 737 770 738
3 738 770 771
3 738 771 739
3 739 771 772
3 739 772 740
3 740 772 773
3 740 773 741
3 741 773 774
3 741 774 742
3 742 774 775
3 742 775 743
3 743 775 776
3 743 776 744
3 744 776 777
3 744 777 745
3 745 777 778
3 745 778 746
3 746 778 779
3 746 779 747
3 747 779 780
3 747 780 748
3 748 780 781
3 748 781 749
3 749 781 782
3 749 782 750
3 750 782 783
3 750 783 751
3 751 783 784
3 751 784 752
3 752 784 785
3 752 785 753
3 753 785 786
3 753 786 754
3 754 786 787
3 754 787 755
3 755 787 788
3 755 788 756
3 756 788 789
3 756 789 757
3 757 789 790
3 757 790 758
3 758 790 791
3 758 791 759
3 759 791 792
3 759 792 760
3 760 792 793
3 760 793 761
3 761 793 794
3 761 794 762
3 762 794 795
3 762 795 763
3 763 795 796
3 763 796 764
3 764 796 797
3 764 797 765
3 765 797 798
3 765 798 766
3 766 798 799
3 766 799 767
3 767 799 768
3 767 768 736
3 768 800 801
3 768 801 769
3 769 801 802
3 769 802 770
3 770 802 803
3 770 803 771
3 771 803 804
3 771 804 772
3 772 804 805
3 772 805 773
3 773 805 806
3 773 806 774
3 774 806 807
3 774 807 775
3 775 807 808
3 775 808 776
3 776 808 809
3 776 809 777
3 777 809 810
3 777 810 778
3 778 810 811
3 778 811 779
3 779 811 812
3 779 812 780
3 780 812 813
3 780 813 781
3 781 813 814
3 781 814 782
3 782 814 815
3 782 815 783
3 783 815 816
3 783 816 784
3 784 816 817
3 784 817 785
3 785 817 818
3 785 818 786
3 786 818 819
3 786 819 787
3 787 819 820
3 787 820 788
3 788 820 821
3 788 821 789
3 789 821 822
3 789 822 790
3 790 822 823
3 790 823 791
3 791 823 824
3 791 824 792
3 792 824 825
3 792 825 793
3 793 825 826
3 793 826 794
3 794 826 827
3 794 827 795
3 795 827 828
3 795 828 796
3 796 828 829
3 796 829 797
3 797 829 830
3 797 830 798
3 798 830 831
3 798 831 799
3 799 831 800
3 799 800 768
3 800 832 833
3 800 833 801
3 801 833 834
3 801 834 802
3 802 834 835
3 802 835 803
3 803 835 836
3 803 836 804
3 804 836 837
3 804 837 805
3 805 837 838
3 805 838 806
3 806 838 839
3 806 839 807
3 807 839 840
3 807 840 808
3 808 840 841
3 808 841 809
3 809 841 842
3 809 842 810
3 810 842 843
3 810 843 811
3 811 843 844
3 811 844 812
3 812 844 845
3 812 845 813
3 813 845 846
3 813 846 814
3 814 846 847
3 814 847 815
3 815 847 848
3 815 848 816
3 816 848 849
3 816 849 817
3 817 849 850
3 817 850 818
3 818 850 851
3 818 851 819
3 819 851 852
3 819 852 820
3 820 852 853
3 820 853 821
3 821 853 854
3 821 854 822
3 822 854 855
3 822 855 823
3 823 855 856
3 823 856 824
3 824 856 857
3 824 857 825
3 825 857 858
3 825 858 826
3 826 858 859
3 826 859 827
3 827 859 860
3 827 860 828
3 828 860 861
3 828 861 829
3 829 861 862
3 829 862 830
3 830 862 863
3 830 863 831
3 831 863 832
3 831 832 800
3 832 864 865
3 832 865 833
3 833 865 866
3 833 866 834
3 834 866 867
3 834 867 835
3 835 867 868
3 835 868 836
3 836 868 869
3 836 869 837
3 837 869 870
3 837 870 838
3 838 870 871
3 838 871 839
3 839 871 872
3 839 872 840
3 840 872 873
3 840 873 841
3 841 873 874
3 841 874 842
3 842 874 875
3 842 875 843
3 843 875 876
3 843 876 844
3 844 876 877
3 844 877 845
3 845 877 878
3 845 878 846
3 846 878 879
3 846 879 847
3 847 879 880
3 847 880 848
3 848 880 881
3 848 881 849
3 849 881 882
3 849 882 850
3 850 882 883
3 850 883 851
3 851 883 884
3 851 884 852
3 852 884 885
3 852 885 853
3 853 885 886
3 853 886 854
3 854 886 887
3 854 887 855
3 855 887 888
3 855 888 856
3 856 888 889
3 856 889 857
3 857 889 890
3 857 890 858
3 858 890 891
3 858 891 859
3 859 891 892
3 859 892 860
3 860 892 893
3 860 893 861
3 861 893 894
3 861 894 862
3 862 894 895
3 862 895 863
3 863 895 864
3 863 864 832
3 864 896 897
3 864 897 865
3 865 897 898
3 865 898 866
3 866 898 899
3 866 899 867
3 867 899 900
3 867 900 868
3 868 900 901
3 868 901 869
3 869 901 902
3 869 902 870
3 870 902 903
3 870 903 871
3 871 903 904
3 871 904 872
3 872 904 905
3 872 905 873
3 873 905 906
3 873 906 874
3 874 906 907
3 874 907 875
3 875 907 908
3 875 908 876
3 876 908 909
3 876 909 877
3 877 909 910
3 877 910 878
3 878 910 911
3 878 911 879
3 879 911 912
3 879 912 880
3 880 912 913
3 880 913 881
3 881 913 914
3 881 914 882
3 882 914 915
3 882 915 883
3 883 915 916
3 883 916 884
3 884 916 917
3 884 917 885
3 885 917 918
3 885 918 886
3 886 918 919
3 886 919 887
3 887 919 920
3 887 920 888
3 888 920 921
3 888 921 889
3 889 921 922
3 889 922 890
3 890 922 923
3 890 923 891
3 891 923 924
3 891 924 892
3 892 924 925
3 892 925 893
3 893 925 926
3 893 926 894
3 894 926 927
3 894 927 895
3 895 927 896
3 895 896 864
3 896 928 929
3 896 929 897
3 897 929 930
3 897 930 898
3 898 930 931
3 898 931 899
3 899 931 932
3 899 932 900
3 900 932 933
3 900 933 901
3 901 933 934
3 901 934 902
3 902 934 935
3 902 935 903
3 903 935 936
3 903 936 904
3 904 936 937
3 904 937 905
3 905 937 938
3 905 938 906
3 906 938 939
3 906 939 907
3 907 939 940
3 907 940 908
3 908 940 941
3 908 941 909
3 909 941 942
3 909 942 910
3 910 942 943
3 910 943 911
3 911 943 944
3 911 944 912
3 912 944 945
3 912 945 913
3 913 945 946
3 913 946 914
3 914 946 947
3 914 947 915
3 915 947 948
3 915 948 916
3 916 948 949
3 916 949 917
3 917 949 950
3 917 950 918
3 918 950 951
3 918 951 919
3 919 951 952
3 919 952 920
3 920 952 953
3 920 953 921
3 921 953 954
3 921 954 922
3 922 954 955
3 922 955 923
3 923 955 956
3 923 956 924
3 924 956 957
3 924 957 925
3 925 957 958
3 925 958 926
3 926 958 959
3 926 959 927
3 927 959 928
3 927 928 896
3 928 960 961
3 928 961 929
3 929 961 962
3 929 962 930
3 930 962 963
3 930 963 931
3 931 963 964
3 931 964 932
3 932 964 965
3 932 965 933
3 933 965 966
3 933 966 934
3 934 966 967
3 934 967 935
3 935 967 968
3 935 968 936
3 936 968 969
3 936 969 937
3 937 969 970
3 937 970 938
3 938 970 971
3 938 971 939
3 939 971 972
3 939 972 940
3 940 972 973
3 940 973 941
3 941 973 974
3 941 974 942
3 942 974 975
3 942 975 943
3 943 975 976
3 943 976 944
3 944 976 977
3 944 977 945
3 945 977 978
3 945 978 946
3 946 978 979
3 946 979 947
3 947 979 980
3 947 980 948
3 948 980 981
3 948 981 949
3 949 981 982
3 949 982 950
3 950 982 983
3 950 983 951
3 951 983 984
3 951 984 952
3 952 984 985
3 952 985 953
3 953 985 986
3 953 986 954
3 954 986 987
3 954 987 955
3 955 987 988
3 955 988 956
3 956 988 989
3 956 989 957
3 957 989 990
3 957 990 958
3 958 990 991
3 958 991 959
3 959 991 960
3 959 960 928
3 960 992 993
3 960 993 961
3 961 993 994
3 961 994 962
3 962 994 995
3 962 995 963
3 963 995 996
3 963 996 964
3 964 996 997
3 964 997 965
3 965 997 998
3 965 998 966
3 966 998 999
3 966 999 967
3 967 999 1000
3 967 1000 968
3 968 1000 1001
3 968 1001 969
3 969 1001 1002
3 969 1002 970
3 970 1002 1003
3 970 1003 971
3 971 1003 1004
3 971 1004 972
3 972 1004 1005
3 972 1005 973
3 973 1005 1006
3 973 1006 974
3 974 1006 1007
3 974 1007 975
3 975 1007 1008
3 975 1008 976
3 976 1008 1009
3 976 1009 977
3 977 1009 1010
3 977 1010 978
3 978 1010 1011
3 978 1011 979
3 979 1011 1012
3 979 1012 980
3 980 1012 1013
3 980 1013 981
3 981 1013 1014
3 981 1014 982
3 982 1014 1015
3 982 1015 983
3 983 1015 1016
3 983 1016 984
3 984 1016 1017
3 984 1017 985
3 985 1017 1018
3 985 1018 986
3 986 1018 1019
3 986 1019 987
3 987 1019 1020
3 987 1020 988
3 988 1020 1021
3 988 1021 989
3 989 1021 1022
3 989 1022 990
3 990 1022 1023
3 990 1023 991
3 991 1023 992
3 991 992 960
3 992 0 1
3 992 1 993
3 993 1 2
3 993 2 994
3 994 2 3
3 994 3 995
3 995 3 4
3 995 4 996
3 996 4 5
3 996 5 997
3 997 5 6
3 997 6 998
3 998 6 7
3 998 7 999
3 999 7 8
3 999 8 1000
3 1000 8 9
3 1000 9 1001
3 1001 9 10
3 1001 10 1002
3 1002 10 11
3 1002 11 1003
3 1003 11 12
3 1003 12 1004
3 1004 12 13
3 1004 13 1005
3 1005 13 14
3 1005 14 1006
3 1006 14 15
3 1006 15 1007
3 1007 15 16
3 1007 16 1008
3 1008 16 17
3 1008 17 1009
3 1009 17 18
3 1009 18 1010
3 1010 18 19
3 1010 19 1011
3 1011 19 20
3 1011 20 1012
3 1012 20 21
3 1012 21 1013
3 1013 21 22
3 1013 22 1014
3 1014 22 23
3 1014 23 1015
3 1015 23 24
3 1015 24 1016
3 1016 24 25
3 1016 25 1017
3 1017 25 26
3 1017 26 1018
3 1018 26 27
3 1018 27 1019
3 1019 27 28
3 1019 28 1020
3 1020 28 29
3 1020 29 1021
3 1021 29 30
3 1021 30 1022
3 1022 30 31
3 1022 31 1023
3 1023 31 0
3 1023 0 992
