4OFF
8 16 32 16
1.0 0.0 0.0 0.0
-1.0 0.0 0.0 0.0
0.0 1.0 0.0 0.0
0.0 -1.0 0.0 0.0
0.0 0.0 1.0 0.0
0.0 0.0 -1.0 0.0
0.0 0.0 0.0 1.0
0.0 0.0 0.0 -1.0
3 0 2 4
3 0 2 5
3 0 3 4
3 0 3 5
3 1 2 4
3 1 2 5
3 1 3 4
3 1 3 5
3 0 2 6
3 0 2 7
3 0 3 6
3 0 3 7
3 1 2 6
3 1 2 7
3 1 3 6
3 1 3 7
3 0 4 6
3 0 4 7
3 0 5 6
3 0 5 7
3 1 4 6
3 1 4 7
3 1 5 6
3 1 5 7
3 2 4 6
3 2 4 7
3 2 5 6
3 2 5 7
3 3 4 6
3 3 4 7
3 3 5 6
3 3 5 7
4 0 1 2 3 4 5 6 7 8 9 10 11 12 13 14 15
4 0 1 2 3 4 5 6 7 16 17 18 19 20 21 22 23
4 0 1 2 3 8 9 10 11 16 17 18 19 24 25 26 27
4 0 1 4 5 8 9 12 13 16 17 20 21 24 25 28 29
4 2 3 4 5 8 9 14 15 16 17 22 23 26 27 28 29
4 2 3 6 7 10 11 12 13 18 19 20 21 24 26 28 30
4 4 5 6 7 10 11 14 15 18 19 22 23 25 27 29 31
4 6 7 8 9 12 13 14 15 20 21 22 23 26 27 30 31
4 0 2 4 6 8 10 12 14 16 18 20 22 24 26 28 30
4 1 3 5 7 9 11 13 15 17 19 21 23 25 27 29 31
4 0 1 6 7 10 11 12 13 18 19 20 21 28 29 30 31
4 2 3 8 9 12 13 14 15 22 23 24 25 28 29 30 31
4 0 3 4 7 8 11 12 15 16 19 20 23 24 27 28 31
4 1 2 5 6 9 10 13 14 17 18 21 22 25 26 29 30
4 0 1 3 5 7 9 11 15 17 19 21 23 27 29 31
4 2 4 6 8 10 12 14 16 18 20 22 24 26 28 30