4OFF
16 24 0
-1.000000 -1.000000 -1.000000 -1.000000
-1.000000 -1.000000 -1.000000 1.000000
-1.000000 -1.000000 1.000000 -1.000000
-1.000000 -1.000000 1.000000 1.000000
-1.000000 1.000000 -1.000000 -1.000000
-1.000000 1.000000 -1.000000 1.000000
-1.000000 1.000000 1.000000 -1.000000
-1.000000 1.000000 1.000000 1.000000
1.000000 -1.000000 -1.000000 -1.000000
1.000000 -1.000000 -1.000000 1.000000
1.000000 -1.000000 1.000000 -1.000000
1.000000 -1.000000 1.000000 1.000000
1.000000 1.000000 -1.000000 -1.000000
1.000000 1.000000 -1.000000 1.000000
1.000000 1.000000 1.000000 -1.000000
1.000000 1.000000 1.000000 1.000000
4 0 1 3 2
4 4 5 7 6
4 8 9 11 10
4 12 13 15 14
4 0 1 5 4
4 2 3 7 6
4 8 9 13 12
4 10 11 15 14
4 0 2 6 4
4 1 3 7 5
4 8 10 14 12
4 9 11 15 13
4 0 1 9 8
4 2 3 11 10
4 4 5 13 12
4 6 7 15 14
4 0 2 10 8
4 1 3 11 9
4 4 6 14 12
4 5 7 15 13
4 0 4 12 8
4 1 5 13 9
4 2 6 14 10
4 3 7 15 11
